<svg width="296" height="91" viewBox="0 0 296 91" fill="none" xmlns="http://www.w3.org/2000/svg">
<path d="M22.0928 33.7503V30.1928H8.31598V19.5883H24.1774V16.0081H4.12402V49H24.3814V45.4425H8.31598V33.7503H22.0928ZM41.7592 49H45.4074L55.808 16.0081H51.3441L44.0478 40.5934L43.5493 42.2475L43.0734 40.6387L35.8225 16.0081H31.336L41.7592 49ZM81.5471 33.7503V30.1928H67.7702V19.5883H83.6317V16.0081H63.5783V49H83.8357V45.4425H67.7702V33.7503H81.5471ZM104.046 35.5404L110.526 49H114.945L114.968 48.7281L107.966 34.634C108.872 34.2413 109.703 33.7654 110.458 33.2065C111.214 32.6476 111.863 32.0056 112.407 31.2805C112.951 30.5554 113.374 29.7472 113.676 28.8559C113.993 27.9646 114.152 26.9827 114.152 25.9102C114.152 24.2485 113.857 22.8059 113.268 21.5823C112.694 20.3436 111.901 19.3164 110.889 18.5006C109.862 17.6849 108.668 17.0731 107.309 16.6652C105.949 16.2574 104.499 16.0383 102.958 16.0081H93.2828V49H97.4521V35.5404H104.046ZM97.4521 32.0962V19.4523H102.958C103.97 19.4674 104.899 19.6109 105.745 19.8828C106.606 20.1548 107.347 20.5551 107.966 21.0838C108.585 21.6276 109.069 22.2998 109.416 23.1005C109.764 23.886 109.937 24.8075 109.937 25.8649C109.937 26.8619 109.756 27.7456 109.393 28.516C109.031 29.2713 108.54 29.9133 107.921 30.4421C107.286 30.9708 106.554 31.3786 105.723 31.6657C104.892 31.9376 104.008 32.0811 103.072 32.0962H97.4521ZM132.572 32.572L125.072 16.0081H120.291L130.555 36.696L130.623 49H134.521L134.589 36.696L144.853 16.0081H140.095L132.572 32.572ZM157.156 35.767H163.659C165.139 35.7519 166.537 35.5253 167.851 35.0872C169.18 34.6491 170.343 34.0147 171.34 33.1838C172.337 32.353 173.123 31.3333 173.697 30.1248C174.286 28.9012 174.581 27.4964 174.581 25.9102C174.581 24.3241 174.286 22.9192 173.697 21.6956C173.123 20.472 172.337 19.4448 171.34 18.6139C170.343 17.7831 169.18 17.1486 167.851 16.7105C166.537 16.2725 165.139 16.0383 163.659 16.0081H152.964V49H157.156V35.767ZM157.156 32.3228V19.4523H163.659C164.626 19.4674 165.517 19.626 166.333 19.9282C167.163 20.2303 167.881 20.6608 168.485 21.2197C169.074 21.7787 169.535 22.4584 169.867 23.2591C170.215 24.0597 170.389 24.9585 170.389 25.9555C170.389 26.9525 170.215 27.8438 169.867 28.6293C169.535 29.3997 169.067 30.0569 168.463 30.6007C167.858 31.1445 167.148 31.5675 166.333 31.8696C165.517 32.1566 164.626 32.3077 163.659 32.3228H157.156ZM199.572 40.6614C199.572 41.5678 199.376 42.3533 198.983 43.018C198.59 43.6675 198.084 44.2038 197.465 44.6268C196.845 45.0648 196.135 45.3896 195.335 45.6011C194.549 45.7975 193.748 45.8957 192.933 45.8957C191.906 45.8957 190.954 45.7597 190.078 45.4878C189.217 45.2008 188.454 44.7778 187.789 44.2189C187.124 43.6751 186.581 43.0104 186.158 42.2249C185.735 41.4243 185.455 40.5103 185.319 39.4831H181.037C181.082 40.9031 181.392 42.1947 181.966 43.3578C182.555 44.5059 183.348 45.5105 184.345 46.3715C185.463 47.3685 186.777 48.1314 188.288 48.6601C189.813 49.1888 191.362 49.4532 192.933 49.4532C194.247 49.4532 195.561 49.2719 196.875 48.9094C198.19 48.5317 199.368 47.9728 200.41 47.2326C201.453 46.5075 202.299 45.5936 202.948 44.4908C203.613 43.3881 203.945 42.0965 203.945 40.6161C203.945 39.1508 203.635 37.8592 203.016 36.7413C202.412 35.6235 201.611 34.6793 200.614 33.9089C199.602 33.0781 198.484 32.3983 197.261 31.8696C196.037 31.3258 194.813 30.865 193.59 30.4874C192.85 30.2608 192.057 29.9964 191.211 29.6943C190.38 29.3922 189.609 29.0145 188.899 28.5613C188.174 28.1082 187.578 27.5568 187.109 26.9072C186.641 26.2425 186.399 25.4344 186.384 24.4827C186.384 23.6065 186.558 22.8361 186.905 22.1714C187.268 21.5068 187.751 20.9478 188.356 20.4946C188.945 20.0415 189.617 19.7016 190.372 19.475C191.143 19.2484 191.928 19.1351 192.729 19.1351C193.726 19.1351 194.617 19.2937 195.403 19.6109C196.203 19.9131 196.891 20.3436 197.465 20.9025C198.039 21.4614 198.499 22.1337 198.847 22.9192C199.194 23.6896 199.428 24.5507 199.549 25.5023H203.855C203.824 23.9917 203.5 22.6246 202.88 21.401C202.261 20.1774 201.438 19.1351 200.41 18.274C199.383 17.413 198.205 16.7483 196.875 16.28C195.546 15.7966 194.164 15.5549 192.729 15.5549C191.43 15.5549 190.138 15.7589 188.854 16.1667C187.57 16.5595 186.422 17.1411 185.41 17.9115C184.398 18.6819 183.574 19.626 182.94 20.7439C182.321 21.8618 182.011 23.1307 182.011 24.5507C182.011 25.9706 182.321 27.2093 182.94 28.2668C183.574 29.3091 184.39 30.2155 185.387 30.9859C186.369 31.7412 187.457 32.3908 188.65 32.9346C189.859 33.4633 191.044 33.9165 192.208 34.2941C193.008 34.5509 193.839 34.838 194.7 35.1552C195.576 35.4724 196.377 35.8652 197.102 36.3335C197.827 36.8169 198.416 37.406 198.869 38.1009C199.338 38.7958 199.572 39.6493 199.572 40.6614ZM227.781 40.4575L230.387 49H234.556L224.087 16.0081H220.575L209.925 49H214.117L216.768 40.4575H227.781ZM217.901 36.8093L222.32 22.4887L226.671 36.8093H217.901ZM246.496 45.4425V16.0081H242.304V49H262.629V45.4425H246.496ZM276.087 16.0081H270.898V49H274.977V35.835L274.637 22.534L280.233 39.823H282.635L288.731 22.0581L288.391 35.835V49H292.469V16.0081H287.258L281.457 32.5041L276.087 16.0081Z" fill="#FCBF49"/>
<path d="M45.9174 79.4185C46.0445 80.0224 46.2431 80.4435 46.5133 80.6819C46.7994 80.9044 47.2682 81.0554 47.9197 81.1348L47.9674 81.2063L47.7052 82.136C47.7052 82.136 47.5542 82.1281 47.2523 82.1122C46.9662 82.0963 46.6325 82.0804 46.2511 82.0645C45.8697 82.0645 45.5518 82.0645 45.2976 82.0645C44.7255 82.0645 44.1772 82.0804 43.6528 82.1122C43.1283 82.1599 42.6992 82.1996 42.3655 82.2314C42.0477 82.2791 41.8888 82.3029 41.8888 82.3029L41.8411 82.136L42.0318 81.2779C42.9217 81.2143 43.5097 81.1031 43.7958 80.9441C44.0818 80.7852 44.2249 80.4992 44.2249 80.086C44.2249 79.9588 44.2169 79.8158 44.201 79.6569C44.1851 79.498 44.1613 79.339 44.1295 79.1801L43.7004 76.4864C43.5097 76.4706 43.2634 76.4626 42.9615 76.4626C42.6754 76.4626 42.3814 76.4626 42.0795 76.4626C41.7934 76.4626 41.5391 76.4626 41.3166 76.4626C41.0147 76.4626 40.7048 76.4785 40.387 76.5103C40.0691 76.5262 39.7672 76.55 39.4811 76.5818C39.1951 76.5977 38.9567 76.6215 38.766 76.6533L37.5979 79.2278C37.3754 79.6887 37.2642 80.0542 37.2642 80.3243C37.2642 80.8965 37.6853 81.1825 38.5276 81.1825H39.8625V81.254L39.6242 82.2314C39.6242 82.2314 39.4652 82.2155 39.1474 82.1837C38.8454 82.1519 38.4481 82.1201 37.9555 82.0884C37.4787 82.0725 36.9861 82.0645 36.4775 82.0645C36.1279 82.0645 35.7545 82.0645 35.3572 82.0645C34.9758 82.0804 34.65 82.0963 34.3798 82.1122C34.1097 82.1281 33.9746 82.136 33.9746 82.136L34.2845 81.0633C34.7294 81.0156 35.095 80.8647 35.381 80.6104C35.683 80.3561 36.0008 79.8873 36.3345 79.204L42.2463 67.0228L43.5812 66.6176H43.7719C43.7719 66.6176 43.7958 66.8083 43.8435 67.1897C43.907 67.5552 43.9865 68.0637 44.0818 68.7153C44.1772 69.3669 44.2884 70.1138 44.4156 70.9561C44.5586 71.7983 44.7096 72.6962 44.8685 73.6497C45.0274 74.6033 45.1943 75.5727 45.3691 76.558C45.5598 77.5433 45.7425 78.4968 45.9174 79.4185ZM39.3143 75.6044H41.3405C41.6583 75.6044 42.0318 75.5886 42.4609 75.5568C42.9058 75.525 43.2555 75.4932 43.5097 75.4614L42.4609 69.0967H42.294L39.3143 75.6044ZM55.4318 82.3506C54.9392 82.3506 54.6929 82.1201 54.6929 81.6593C54.6929 81.3732 54.7485 80.9839 54.8597 80.4912C54.9869 79.9986 55.1378 79.4662 55.3127 78.8941C55.5034 78.3061 55.6861 77.7181 55.8609 77.1301C56.0516 76.5262 56.2026 75.97 56.3138 75.4614C56.441 74.9529 56.5046 74.5317 56.5046 74.198C56.5046 73.912 56.4251 73.6815 56.2662 73.5067C56.1231 73.316 55.9324 73.2207 55.6941 73.2207C55.3444 73.2207 54.9154 73.5226 54.4068 74.1265C53.8983 74.7304 53.35 75.5647 52.762 76.6295C52.174 77.6942 51.5939 78.9338 51.0218 80.3482L51.1172 77.0586L51.5701 77.3208C52.3965 75.7157 53.2229 74.3728 54.0492 73.2922C54.8915 72.1956 55.6782 71.4328 56.4092 71.0037C56.9177 71.0037 57.3468 71.2262 57.6964 71.6712C58.0461 72.1003 58.2209 72.6406 58.2209 73.2922C58.2209 73.7054 58.1335 74.2218 57.9587 74.8416C57.7997 75.4455 57.6011 76.0971 57.3627 76.7963C57.1402 77.4797 56.9177 78.1472 56.6953 78.7987C56.4887 79.4503 56.3297 80.0303 56.2185 80.5389L56.29 80.6342C56.3695 80.6342 56.4569 80.6104 56.5522 80.5627C56.6635 80.4992 56.8383 80.3641 57.0767 80.1575C57.3309 79.9509 57.6964 79.641 58.1732 79.2278L58.4593 79.2516L58.7692 79.8238C58.2129 80.3959 57.7123 80.8726 57.2674 81.254C56.8383 81.6195 56.4728 81.8897 56.1708 82.0645C55.8689 82.2552 55.6225 82.3506 55.4318 82.3506ZM49.52 82.2791L49.3532 82.0645C49.5121 81.1269 49.671 80.1734 49.8299 79.204C49.9889 78.2346 50.1319 77.3287 50.259 76.4864C50.3862 75.6283 50.4815 74.9131 50.5451 74.341C50.6245 73.7689 50.6643 73.4193 50.6643 73.2922C50.6643 72.9584 50.5848 72.7201 50.4259 72.577C50.267 72.4181 50.0047 72.3387 49.6392 72.3387H48.6619L48.8287 71.4328C49.226 71.4328 49.7823 71.4249 50.4974 71.409C51.2284 71.3772 51.9595 71.3375 52.6905 71.2898L52.905 71.5758C52.6984 72.1638 52.4918 72.8234 52.2852 73.5544C52.0945 74.2854 51.9197 75.0085 51.7608 75.7236C51.6019 76.4388 51.4827 77.0744 51.4032 77.6307L51.3794 78.9179L50.998 81.7308C50.998 81.7785 50.8947 81.85 50.6881 81.9453C50.4974 82.0248 50.2829 82.0963 50.0445 82.1599C49.822 82.2393 49.6472 82.2791 49.52 82.2791ZM67.8762 76.0574C67.8603 76.264 67.8444 76.4706 67.8285 76.6771C67.8126 76.8837 67.8046 77.0744 67.8046 77.2493C67.8046 78.4888 68.0828 79.4423 68.639 80.1098C69.2111 80.7614 70.0454 81.0872 71.142 81.0872C72.4133 81.0872 73.4224 80.7375 74.1694 80.0383C74.9322 79.3232 75.393 78.2902 75.552 76.9394C75.5996 76.6056 75.6553 76.1289 75.7188 75.5091C75.7824 74.8893 75.8539 74.2139 75.9334 73.4829C76.0128 72.7518 76.0843 72.0605 76.1479 71.409C76.2274 70.7415 76.283 70.2012 76.3148 69.788C76.3625 69.3589 76.3863 69.1444 76.3863 69.1444C76.4181 68.5882 76.3942 68.2385 76.3148 68.0955C76.2353 67.9366 76.0287 67.8571 75.695 67.8571C75.552 67.8571 75.3454 67.8651 75.0752 67.881C74.805 67.8969 74.67 67.9048 74.67 67.9048V67.8094L74.9322 66.8321C74.9322 66.8321 75.0832 66.84 75.3851 66.8559C75.7029 66.8718 76.0605 66.8877 76.4578 66.9036C76.8551 66.9036 77.1968 66.9036 77.4828 66.9036C77.8166 66.9036 78.1503 66.8877 78.484 66.8559C78.8336 66.8083 79.1276 66.7685 79.366 66.7367C79.6044 66.6891 79.7236 66.6652 79.7236 66.6652L79.4852 67.6903C78.8019 67.7697 78.3569 67.8889 78.1503 68.0478C77.9437 68.2067 77.8086 68.5405 77.745 69.049L76.7439 77.1539C76.5373 78.7908 75.8857 80.0701 74.7892 80.9918C73.6926 81.8976 72.2464 82.3506 70.4507 82.3506C69.0045 82.3506 67.9 81.9771 67.1372 81.2302C66.3903 80.4674 66.0247 79.3947 66.0406 78.0121C66.0406 77.7101 66.0645 77.3923 66.1122 77.0586L67.0895 69.1444C67.1531 68.6358 67.1372 68.2942 67.0418 68.1193C66.9624 67.9445 66.7399 67.8571 66.3744 67.8571C66.2313 67.8571 66.0645 67.8651 65.8738 67.881C65.6831 67.8969 65.5877 67.9048 65.5877 67.9048L65.5639 67.8094L65.8499 66.8321C65.8499 66.8321 66.0009 66.84 66.3029 66.8559C66.6048 66.8718 66.9544 66.8877 67.3517 66.9036C67.749 66.9036 68.0907 66.9036 68.3768 66.9036C68.6151 66.9036 68.8694 66.8957 69.1396 66.8798C69.4256 66.848 69.6878 66.8162 69.9262 66.7844C70.1805 66.7526 70.3871 66.7288 70.546 66.7129C70.7049 66.6811 70.7844 66.6652 70.7844 66.6652L70.5698 67.6903C69.9818 67.7697 69.5766 67.9048 69.3541 68.0955C69.1475 68.2703 69.0045 68.5882 68.925 69.049L67.8762 76.0574ZM86.463 82.3506C85.9704 82.3506 85.724 82.1201 85.724 81.6593C85.724 81.3732 85.7797 80.9839 85.8909 80.4912C86.018 79.9986 86.169 79.4662 86.3438 78.8941C86.5345 78.3061 86.7173 77.7181 86.8921 77.1301C87.0828 76.5262 87.2338 75.97 87.345 75.4614C87.4722 74.9529 87.5357 74.5317 87.5357 74.198C87.5357 73.912 87.4563 73.6815 87.2973 73.5067C87.1543 73.316 86.9636 73.2207 86.7252 73.2207C86.3756 73.2207 85.9465 73.5226 85.438 74.1265C84.9294 74.7304 84.3812 75.5647 83.7932 76.6295C83.2052 77.6942 82.6251 78.9338 82.053 80.3482L82.1484 77.0586L82.6013 77.3208C83.4277 75.7157 84.254 74.3728 85.0804 73.2922C85.9227 72.1956 86.7093 71.4328 87.4404 71.0037C87.9489 71.0037 88.378 71.2262 88.7276 71.6712C89.0772 72.1003 89.2521 72.6406 89.2521 73.2922C89.2521 73.7054 89.1646 74.2218 88.9898 74.8416C88.8309 75.4455 88.6323 76.0971 88.3939 76.7963C88.1714 77.4797 87.9489 78.1472 87.7264 78.7987C87.5198 79.4503 87.3609 80.0303 87.2497 80.5389L87.3212 80.6342C87.4006 80.6342 87.488 80.6104 87.5834 80.5627C87.6946 80.4992 87.8695 80.3641 88.1078 80.1575C88.3621 79.9509 88.7276 79.641 89.2044 79.2278L89.4904 79.2516L89.8003 79.8238C89.2441 80.3959 88.7435 80.8726 88.2985 81.254C87.8695 81.6195 87.5039 81.8897 87.202 82.0645C86.9 82.2552 86.6537 82.3506 86.463 82.3506ZM80.5512 82.2791L80.3844 82.0645C80.5433 81.1269 80.7022 80.1734 80.8611 79.204C81.02 78.2346 81.1631 77.3287 81.2902 76.4864C81.4173 75.6283 81.5127 74.9131 81.5762 74.341C81.6557 73.7689 81.6954 73.4193 81.6954 73.2922C81.6954 72.9584 81.616 72.7201 81.4571 72.577C81.2981 72.4181 81.0359 72.3387 80.6704 72.3387H79.6931L79.8599 71.4328C80.2572 71.4328 80.8134 71.4249 81.5286 71.409C82.2596 71.3772 82.9906 71.3375 83.7217 71.2898L83.9362 71.5758C83.7296 72.1638 83.523 72.8234 83.3164 73.5544C83.1257 74.2854 82.9509 75.0085 82.792 75.7236C82.6331 76.4388 82.5139 77.0744 82.4344 77.6307L82.4106 78.9179L82.0292 81.7308C82.0292 81.7785 81.9259 81.85 81.7193 81.9453C81.5286 82.0248 81.314 82.0963 81.0757 82.1599C80.8532 82.2393 80.6784 82.2791 80.5512 82.2791ZM94.1172 82.3506C93.3385 82.3506 92.6949 82.0009 92.1863 81.3017C91.6937 80.5866 91.4474 79.633 91.4474 78.4412C91.4474 77.4559 91.5904 76.5182 91.8765 75.6283C92.1625 74.7383 92.5598 73.9517 93.0683 73.2683C93.5769 72.5691 94.1569 72.0208 94.8085 71.6235C95.4601 71.2103 96.1434 71.0037 96.8586 71.0037C97.7008 71.0037 98.3604 71.3136 98.8371 71.9334C99.3298 72.5532 99.5761 73.4272 99.5761 74.5556C99.5761 75.6044 99.4331 76.5977 99.147 77.5353C98.861 78.4729 98.4637 79.3073 97.9551 80.0383C97.4625 80.7534 96.8824 81.3176 96.215 81.7308C95.5634 82.144 94.8641 82.3506 94.1172 82.3506ZM95.0707 81.0395C95.5952 81.0395 96.064 80.817 96.4772 80.372C96.8904 79.927 97.2082 79.3152 97.4307 78.5365C97.6691 77.7419 97.7883 76.852 97.7883 75.8667C97.7883 74.8019 97.6134 73.9676 97.2638 73.3637C96.9301 72.7439 96.4613 72.434 95.8574 72.434C95.3488 72.434 94.888 72.6485 94.4748 73.0776C94.0616 73.4908 93.7358 74.0629 93.4974 74.794C93.2749 75.5091 93.1637 76.3275 93.1637 77.2493C93.1637 78.3617 93.3385 79.2755 93.6881 79.9906C94.0536 80.6899 94.5145 81.0395 95.0707 81.0395ZM101.132 72.291L101.227 71.5997L103.11 71.3136L103.325 70.1217C103.42 69.3907 103.619 68.7232 103.921 68.1193C104.239 67.4996 104.628 66.9672 105.089 66.5222C105.566 66.0613 106.098 65.7117 106.686 65.4733C107.29 65.2191 107.926 65.0919 108.593 65.0919C109.07 65.0919 109.571 65.1476 110.095 65.2588C110.635 65.37 111.096 65.5131 111.478 65.6879L111.573 65.9501L110.882 67.0943L110.429 67.1658C109.888 66.9433 109.372 66.7765 108.879 66.6652C108.387 66.554 107.942 66.4984 107.544 66.4984C106.845 66.4984 106.289 66.7288 105.876 67.1897C105.478 67.6346 105.216 68.31 105.089 69.2159L104.731 71.4328L109.761 71.409L109.857 71.4805L109.666 72.434L104.851 72.4102L104.612 72.5532L103.373 83.8524C103.309 84.488 103.174 85.0522 102.967 85.5448C102.761 86.0375 102.499 86.4507 102.181 86.7844C101.863 87.134 101.489 87.3963 101.06 87.5711C100.647 87.7459 100.186 87.8333 99.6774 87.8333C99.1848 87.8333 98.7318 87.722 98.3186 87.4996C97.9055 87.293 97.6432 87.0387 97.532 86.7367C97.5797 86.546 97.6512 86.3236 97.7465 86.0693C97.8419 85.815 97.9452 85.5607 98.0564 85.3065C98.1677 85.0681 98.263 84.8774 98.3425 84.7344H98.6762C98.6603 85.3224 98.8113 85.7991 99.1291 86.1646C99.4311 86.5301 99.8363 86.7129 100.345 86.7129C100.758 86.7129 101.132 86.5301 101.466 86.1646C101.799 85.815 101.998 85.37 102.062 84.8297C102.157 84.051 102.213 83.3279 102.228 82.6605C102.26 81.993 102.3 81.3414 102.348 80.7058L103.015 72.6009L102.848 72.4817L101.203 72.4102L101.132 72.291ZM115.741 80.6342C115.868 80.6342 116.043 80.5468 116.265 80.372C116.488 80.1972 116.94 79.8158 117.624 79.2278L117.91 79.2516L118.22 79.8238C117.791 80.2528 117.385 80.6342 117.004 80.968C116.639 81.3017 116.313 81.5798 116.027 81.8023C115.741 82.0089 115.494 82.1599 115.288 82.2552C115.145 82.3188 115.01 82.3506 114.882 82.3506C114.406 82.3506 114.167 82.0725 114.167 81.5162C114.167 81.5162 114.191 81.3414 114.239 80.9918C114.302 80.6263 114.382 80.1575 114.477 79.5854C114.573 79.0133 114.668 78.4014 114.763 77.7499C114.875 77.0824 114.978 76.4388 115.073 75.819C115.169 75.1992 115.24 74.6668 115.288 74.2218C115.351 73.7769 115.383 73.4829 115.383 73.3398C115.383 72.9743 115.304 72.7201 115.145 72.577C115.002 72.4181 114.747 72.3387 114.382 72.3387H110.973L110.735 72.4817L109.686 82.1122C109.59 83.0021 109.463 83.7967 109.304 84.496C109.145 85.2111 108.923 85.815 108.637 86.3077C108.367 86.8003 108.001 87.1738 107.54 87.428C107.08 87.6982 106.499 87.8333 105.8 87.8333C105.308 87.8333 104.855 87.722 104.441 87.4996C104.028 87.293 103.766 87.0387 103.655 86.7367C103.702 86.546 103.774 86.3236 103.869 86.0693C103.965 85.815 104.068 85.5607 104.179 85.3065C104.29 85.0681 104.386 84.8774 104.465 84.7344H104.799C104.783 85.3224 104.934 85.7991 105.252 86.1646C105.554 86.5301 105.959 86.7129 106.468 86.7129C106.881 86.7129 107.254 86.5301 107.588 86.1646C107.922 85.815 108.12 85.37 108.184 84.8297C108.263 84.2258 108.319 83.6458 108.351 83.0895C108.383 82.5492 108.407 82.0089 108.422 81.4686L109.138 72.6009L108.971 72.4817L107.326 72.4102L107.254 72.291L107.35 71.5997L109.233 71.3136L109.376 70.0502C109.503 69.0013 109.749 68.1193 110.115 67.4042C110.496 66.6732 110.949 66.0852 111.474 65.6402C112.014 65.1952 112.586 64.8774 113.19 64.6867C113.794 64.4801 114.382 64.3768 114.954 64.3768C115.431 64.3768 115.939 64.4324 116.48 64.5437C117.036 64.6549 117.489 64.7979 117.838 64.9727L117.934 65.235L117.195 66.7367L116.742 66.8083C116.202 66.4586 115.693 66.2044 115.216 66.0454C114.739 65.8706 114.302 65.7832 113.905 65.7832C112.983 65.7832 112.324 66.0772 111.927 66.6652C111.529 67.2373 111.259 68.0876 111.116 69.2159L110.854 71.3613H113.285C113.619 71.3613 114.016 71.3613 114.477 71.3613C114.954 71.3613 115.415 71.3613 115.86 71.3613C116.321 71.3454 116.694 71.3375 116.98 71.3375C117.282 71.3216 117.433 71.3057 117.433 71.2898L117.648 71.5758C117.648 71.5758 117.576 71.8301 117.433 72.3387C117.29 72.8472 117.107 73.5305 116.885 74.3887C116.678 75.2469 116.464 76.2083 116.241 77.2731C116.019 78.3379 115.828 79.4265 115.669 80.5389L115.741 80.6342ZM124.334 72.4102C123.841 72.4102 123.364 72.6644 122.904 73.173C122.443 73.6815 122.069 74.341 121.783 75.1515C121.497 75.962 121.354 76.8122 121.354 77.7022C121.354 78.6875 121.505 79.4741 121.807 80.0621C122.109 80.6501 122.506 80.9441 122.999 80.9441C123.476 80.9441 123.952 80.7534 124.429 80.372C124.922 79.9747 125.311 79.4741 125.597 78.8702L125.931 78.8941L126.289 79.4662C125.987 80.0224 125.621 80.523 125.192 80.968C124.763 81.3971 124.31 81.7387 123.833 81.993C123.372 82.2314 122.911 82.3506 122.451 82.3506C121.592 82.3506 120.917 82.0009 120.424 81.3017C119.932 80.5866 119.685 79.6251 119.685 78.4173C119.685 77.4797 119.836 76.5739 120.138 75.6998C120.44 74.8098 120.846 74.0153 121.354 73.316C121.879 72.6009 122.459 72.0367 123.094 71.6235C123.73 71.2103 124.389 71.0037 125.073 71.0037C125.486 71.0037 125.867 71.0514 126.217 71.1468C126.583 71.2262 126.877 71.3454 127.099 71.5043L127.218 71.7665L126.408 73.3637L126.074 73.4352C125.581 72.7518 125.001 72.4102 124.334 72.4102ZM130.24 80.6342C130.367 80.6342 130.542 80.5468 130.764 80.372C130.987 80.1972 131.44 79.8158 132.123 79.2278L132.409 79.2516L132.719 79.8238C132.163 80.3959 131.662 80.8726 131.217 81.254C130.788 81.6195 130.422 81.8897 130.12 82.0645C129.819 82.2552 129.572 82.3506 129.382 82.3506C128.905 82.3506 128.666 82.0725 128.666 81.5162C128.905 80.1336 129.111 78.8543 129.286 77.6783C129.477 76.5023 129.62 75.525 129.715 74.7463C129.826 73.9676 129.882 73.4988 129.882 73.3398C129.882 72.9743 129.803 72.7201 129.644 72.577C129.501 72.4181 129.246 72.3387 128.881 72.3387H127.904L128.07 71.4328C128.404 71.4328 128.801 71.4249 129.262 71.409C129.723 71.3931 130.192 71.3772 130.669 71.3613C131.146 71.3295 131.567 71.3057 131.932 71.2898L132.147 71.5758C131.892 72.4181 131.63 73.3716 131.36 74.4364C131.106 75.4853 130.875 76.5421 130.669 77.6068C130.462 78.6716 130.295 79.6489 130.168 80.5389L130.24 80.6342ZM131.122 68.2862C130.772 68.2862 130.518 68.175 130.359 67.9525C130.2 67.73 130.12 67.4837 130.12 67.2135C130.12 66.8003 130.271 66.4427 130.573 66.1408C130.875 65.823 131.241 65.664 131.67 65.664C132.02 65.664 132.274 65.7753 132.433 65.9978C132.608 66.2203 132.695 66.4666 132.695 66.7367C132.695 67.1499 132.536 67.5154 132.218 67.8333C131.916 68.1352 131.551 68.2862 131.122 68.2862ZM141.316 80.6342C141.396 80.6342 141.483 80.6104 141.579 80.5627C141.69 80.4992 141.865 80.3641 142.103 80.1575C142.357 79.9509 142.723 79.641 143.2 79.2278L143.486 79.2516L143.796 79.8238C143.096 80.4912 142.524 81.0077 142.079 81.3732C141.65 81.7387 141.309 81.993 141.054 82.136C140.8 82.2791 140.57 82.3506 140.363 82.3506C140.14 82.3506 139.958 82.287 139.815 82.1599C139.672 82.0486 139.6 81.8976 139.6 81.7069C139.6 81.5321 139.688 81.0077 139.862 80.1336C140.053 79.2437 140.307 78.0995 140.625 76.701L140.482 76.6533C139.703 78.0836 138.957 79.2596 138.241 80.1813C137.526 81.0872 136.787 81.8102 136.024 82.3506C135.436 82.3506 134.968 82.0725 134.618 81.5162C134.284 80.9441 134.117 80.1575 134.117 79.1563C134.117 78.171 134.268 77.2016 134.57 76.2481C134.888 75.2787 135.309 74.4125 135.834 73.6497C136.358 72.871 136.946 72.2512 137.598 71.7904C138.249 71.3295 138.909 71.0991 139.576 71.0991L141.96 71.4805L142.175 70.8845L142.294 70.8607L143.033 71.2183L143.223 71.5043C142.969 72.3466 142.715 73.3081 142.461 74.3887C142.206 75.4535 141.968 76.5262 141.746 77.6068C141.539 78.6716 141.372 79.6489 141.245 80.5389L141.316 80.6342ZM136.525 80.4197C136.732 80.4197 137.01 80.229 137.359 79.8476C137.725 79.4503 138.122 78.9179 138.551 78.2505C138.996 77.5671 139.449 76.7963 139.91 75.9382C140.371 75.0641 140.816 74.1424 141.245 73.173C140.879 72.9505 140.474 72.7677 140.029 72.6247C139.584 72.4658 139.211 72.3863 138.909 72.3863C138.369 72.3863 137.86 72.6485 137.383 73.173C136.906 73.6974 136.517 74.3887 136.215 75.2469C135.929 76.0891 135.786 77.0029 135.786 77.9882C135.786 78.6875 135.858 79.2675 136.001 79.7284C136.144 80.1893 136.318 80.4197 136.525 80.4197ZM147.227 80.6342C147.354 80.6342 147.529 80.5468 147.751 80.372C147.974 80.1972 148.427 79.8158 149.11 79.2278L149.396 79.2516L149.706 79.8238C149.166 80.3641 148.673 80.8249 148.228 81.2063C147.799 81.5878 147.425 81.8738 147.108 82.0645C146.806 82.2552 146.559 82.3506 146.369 82.3506C145.876 82.3506 145.63 82.1201 145.63 81.6593C145.63 81.5957 145.669 81.2938 145.749 80.7534C145.828 80.2131 145.932 79.5218 146.059 78.6795C146.202 77.8214 146.353 76.8837 146.512 75.8667C146.671 74.8496 146.829 73.8245 146.988 72.7916C147.147 71.7586 147.29 70.8051 147.417 69.931C147.561 69.0411 147.672 68.3021 147.751 67.7141C147.831 67.1102 147.87 66.7367 147.87 66.5937C147.87 65.958 147.537 65.6402 146.869 65.6402H145.892L146.035 64.7344C146.4 64.7344 146.798 64.7264 147.227 64.7105C147.672 64.6946 148.093 64.6787 148.49 64.6628C148.903 64.647 149.237 64.6311 149.491 64.6152C149.746 64.5993 149.873 64.5913 149.873 64.5913L150.087 64.8774C150.087 64.8774 150.032 65.1158 149.92 65.5925C149.825 66.0693 149.69 66.7288 149.515 67.5711C149.34 68.3975 149.142 69.343 148.919 70.4078C148.713 71.4566 148.498 72.5691 148.276 73.7451C148.053 74.9211 147.847 76.0891 147.656 77.2493C147.465 78.4094 147.298 79.5059 147.155 80.5389L147.227 80.6342ZM158.811 79.49C158.731 80.0462 158.747 80.4594 158.858 80.7296C158.97 80.9839 159.224 81.111 159.621 81.111C159.78 81.111 159.987 81.1031 160.241 81.0872C160.511 81.0713 160.75 81.0633 160.956 81.0633C161.163 81.0474 161.266 81.0395 161.266 81.0395L161.29 81.1348L160.98 82.1599C160.98 82.1599 160.861 82.1519 160.622 82.136C160.4 82.136 160.106 82.1281 159.74 82.1122C159.391 82.0963 159.017 82.0804 158.62 82.0645C158.239 82.0645 157.897 82.0645 157.595 82.0645C157.229 82.0645 156.84 82.0884 156.427 82.136C156.03 82.1837 155.696 82.2314 155.426 82.2791C155.156 82.3267 155.02 82.3506 155.02 82.3506L155.259 81.3255C156.006 81.1825 156.514 80.9759 156.784 80.7058C157.055 80.4197 157.229 79.9429 157.309 79.2755L158.572 69.1444C158.636 68.6358 158.62 68.2942 158.525 68.1193C158.445 67.9445 158.231 67.8571 157.881 67.8571C157.754 67.8571 157.587 67.8651 157.38 67.881C157.19 67.8969 157.094 67.9048 157.094 67.9048L157.071 67.8333L157.333 66.8321C157.333 66.8321 157.428 66.84 157.619 66.8559C157.809 66.8559 158.064 66.8639 158.382 66.8798C158.699 66.8798 159.041 66.8877 159.407 66.9036C159.772 66.9036 160.122 66.9036 160.456 66.9036C161.504 66.9036 162.418 66.8957 163.197 66.8798C163.991 66.8639 164.683 66.8321 165.271 66.7844C165.875 66.7367 166.423 66.6811 166.916 66.6176L166.963 66.7367C166.963 66.7367 166.908 66.9195 166.796 67.285C166.685 67.6346 166.55 68.1114 166.391 68.7153C166.232 69.3192 166.081 69.9866 165.938 70.7177L164.913 70.813C164.913 70.813 164.929 70.7256 164.961 70.5508C164.993 70.3601 165.024 70.1376 165.056 69.8833C165.104 69.6132 165.128 69.3748 165.128 69.1682C165.128 68.8027 165.048 68.5405 164.889 68.3816C164.73 68.2226 164.436 68.1193 164.007 68.0717C163.578 68.024 162.966 68.0002 162.172 68.0002C161.679 68.0002 161.314 68.016 161.075 68.0478C160.853 68.0796 160.702 68.1591 160.622 68.2862C160.543 68.4133 160.479 68.6279 160.432 68.9298L159.645 74.0788L162.005 74.1027C162.243 74.1027 162.553 74.0788 162.935 74.0311C163.332 73.9835 163.682 73.9437 163.984 73.912C164.285 73.8643 164.436 73.8404 164.436 73.8404L164.484 73.9358L164.031 75.2946C164.031 75.2946 163.864 75.2866 163.531 75.2707C163.213 75.2548 162.831 75.2469 162.386 75.2469C161.957 75.231 161.56 75.223 161.194 75.223C160.845 75.223 160.511 75.2469 160.193 75.2946C159.875 75.3263 159.613 75.3581 159.407 75.3899L158.811 79.49ZM173.046 80.6342C173.125 80.6342 173.213 80.6104 173.308 80.5627C173.419 80.4992 173.594 80.3641 173.833 80.1575C174.087 79.9509 174.452 79.641 174.929 79.2278L175.215 79.2516L175.525 79.8238C174.826 80.4912 174.254 81.0077 173.809 81.3732C173.38 81.7387 173.038 81.993 172.784 82.136C172.53 82.2791 172.299 82.3506 172.092 82.3506C171.87 82.3506 171.687 82.287 171.544 82.1599C171.401 82.0486 171.33 81.8976 171.33 81.7069C171.33 81.5321 171.417 81.0077 171.592 80.1336C171.783 79.2437 172.037 78.0995 172.355 76.701L172.212 76.6533C171.433 78.0836 170.686 79.2596 169.971 80.1813C169.256 81.0872 168.517 81.8102 167.754 82.3506C167.166 82.3506 166.697 82.0725 166.348 81.5162C166.014 80.9441 165.847 80.1575 165.847 79.1563C165.847 78.171 165.998 77.2016 166.3 76.2481C166.618 75.2787 167.039 74.4125 167.563 73.6497C168.088 72.871 168.676 72.2512 169.327 71.7904C169.979 71.3295 170.638 71.0991 171.306 71.0991L173.69 71.4805L173.904 70.8845L174.023 70.8607L174.762 71.2183L174.953 71.5043C174.699 72.3466 174.445 73.3081 174.19 74.3887C173.936 75.4535 173.698 76.5262 173.475 77.6068C173.268 78.6716 173.102 79.6489 172.974 80.5389L173.046 80.6342ZM168.255 80.4197C168.461 80.4197 168.739 80.229 169.089 79.8476C169.454 79.4503 169.852 78.9179 170.281 78.2505C170.726 77.5671 171.179 76.7963 171.64 75.9382C172.1 75.0641 172.545 74.1424 172.974 73.173C172.609 72.9505 172.204 72.7677 171.759 72.6247C171.314 72.4658 170.94 72.3863 170.638 72.3863C170.098 72.3863 169.59 72.6485 169.113 73.173C168.636 73.6974 168.247 74.3887 167.945 75.2469C167.659 76.0891 167.516 77.0029 167.516 77.9882C167.516 78.6875 167.587 79.2675 167.73 79.7284C167.873 80.1893 168.048 80.4197 168.255 80.4197ZM183.724 82.3506C183.231 82.3506 182.985 82.1201 182.985 81.6593C182.985 81.3732 183.041 80.9839 183.152 80.4912C183.279 79.9986 183.43 79.4662 183.605 78.8941C183.795 78.3061 183.978 77.7181 184.153 77.1301C184.344 76.5262 184.495 75.97 184.606 75.4614C184.733 74.9529 184.797 74.5317 184.797 74.198C184.797 73.912 184.717 73.6815 184.558 73.5067C184.415 73.316 184.224 73.2207 183.986 73.2207C183.636 73.2207 183.207 73.5226 182.699 74.1265C182.19 74.7304 181.642 75.5647 181.054 76.6295C180.466 77.6942 179.886 78.9338 179.314 80.3482L179.409 77.0586L179.862 77.3208C180.689 75.7157 181.515 74.3728 182.341 73.2922C183.184 72.1956 183.97 71.4328 184.701 71.0037C185.21 71.0037 185.639 71.2262 185.988 71.6712C186.338 72.1003 186.513 72.6406 186.513 73.2922C186.513 73.7054 186.426 74.2218 186.251 74.8416C186.092 75.4455 185.893 76.0971 185.655 76.7963C185.432 77.4797 185.21 78.1472 184.987 78.7987C184.781 79.4503 184.622 80.0303 184.511 80.5389L184.582 80.6342C184.662 80.6342 184.749 80.6104 184.844 80.5627C184.956 80.4992 185.13 80.3641 185.369 80.1575C185.623 79.9509 185.988 79.641 186.465 79.2278L186.751 79.2516L187.061 79.8238C186.505 80.3959 186.004 80.8726 185.559 81.254C185.13 81.6195 184.765 81.8897 184.463 82.0645C184.161 82.2552 183.915 82.3506 183.724 82.3506ZM177.812 82.2791L177.645 82.0645C177.804 81.1269 177.963 80.1734 178.122 79.204C178.281 78.2346 178.424 77.3287 178.551 76.4864C178.678 75.6283 178.774 74.9131 178.837 74.341C178.917 73.7689 178.956 73.4193 178.956 73.2922C178.956 72.9584 178.877 72.7201 178.718 72.577C178.559 72.4181 178.297 72.3387 177.931 72.3387H176.954L177.121 71.4328C177.518 71.4328 178.074 71.4249 178.789 71.409C179.52 71.3772 180.252 71.3375 180.983 71.2898L181.197 71.5758C180.99 72.1638 180.784 72.8234 180.577 73.5544C180.387 74.2854 180.212 75.0085 180.053 75.7236C179.894 76.4388 179.775 77.0744 179.695 77.6307L179.671 78.9179L179.29 81.7308C179.29 81.7785 179.187 81.85 178.98 81.9453C178.789 82.0248 178.575 82.0963 178.337 82.1599C178.114 82.2393 177.939 82.2791 177.812 82.2791ZM204.678 82.4698L203.081 72.4102H202.938L198.409 81.9453L197.003 82.4698C197.003 82.4698 196.971 82.2949 196.907 81.9453C196.86 81.5957 196.788 81.1031 196.693 80.4674C196.597 79.8317 196.478 79.0927 196.335 78.2505C196.208 77.4082 196.057 76.4944 195.882 75.5091C195.723 74.5238 195.548 73.4988 195.358 72.434C195.183 71.3692 195 70.3045 194.809 69.2397C194.73 68.7789 194.539 68.4451 194.237 68.2385C193.935 68.016 193.498 67.8969 192.926 67.881L192.879 67.7856L193.141 66.8321C193.141 66.8321 193.3 66.84 193.618 66.8559C193.935 66.8718 194.293 66.8877 194.69 66.9036C195.103 66.9036 195.429 66.9036 195.668 66.9036C196.208 66.9036 196.732 66.8798 197.241 66.8321C197.749 66.7844 198.171 66.7367 198.504 66.6891C198.838 66.6414 199.005 66.6176 199.005 66.6176L199.053 66.7844L198.886 67.6664C197.964 67.73 197.352 67.8333 197.05 67.9763C196.764 68.1193 196.621 68.3736 196.621 68.7391C196.621 68.9616 196.653 69.3907 196.716 70.0264C196.796 70.6462 196.891 71.3772 197.003 72.2195C197.114 73.0458 197.233 73.904 197.36 74.794C197.503 75.6839 197.63 76.5103 197.742 77.2731C197.853 78.0359 197.94 78.6557 198.004 79.1325C198.083 79.6092 198.123 79.8476 198.123 79.8476H198.266C198.631 79.0689 198.989 78.2981 199.339 77.5353C199.704 76.7725 200.07 76.0097 200.435 75.2469C200.817 74.4841 201.19 73.7212 201.556 72.9584C201.921 72.1797 202.295 71.401 202.676 70.6223C202.66 70.4952 202.636 70.3601 202.604 70.2171C202.573 70.0582 202.541 69.8992 202.509 69.7403C202.477 69.5814 202.446 69.4304 202.414 69.2874C202.302 68.7948 202.112 68.4451 201.842 68.2385C201.571 68.016 201.158 67.8969 200.602 67.881L200.578 67.7856L200.864 66.8321C200.864 66.8321 200.96 66.84 201.15 66.8559C201.341 66.8559 201.571 66.8639 201.842 66.8798C202.128 66.8798 202.406 66.8877 202.676 66.9036C202.962 66.9036 203.2 66.9036 203.391 66.9036C203.852 66.9036 204.337 66.8798 204.845 66.8321C205.37 66.7844 205.815 66.7367 206.18 66.6891C206.546 66.6414 206.728 66.6176 206.728 66.6176L206.752 66.7844L206.562 67.6664C205.624 67.73 205.012 67.8333 204.726 67.9763C204.44 68.1035 204.297 68.3498 204.297 68.7153C204.297 68.906 204.329 69.3112 204.392 69.931C204.472 70.5349 204.567 71.258 204.678 72.1003C204.805 72.9425 204.933 73.8166 205.06 74.7224C205.187 75.6124 205.306 76.4467 205.417 77.2254C205.544 78.0041 205.64 78.6398 205.703 79.1325C205.783 79.6092 205.823 79.8476 205.823 79.8476H205.966C206.22 79.2914 206.522 78.6477 206.871 77.9167C207.221 77.1857 207.587 76.4149 207.968 75.6044C208.365 74.794 208.747 73.9994 209.112 73.2207C209.478 72.4261 209.811 71.695 210.113 71.0276C210.415 70.3601 210.654 69.8039 210.829 69.3589C211.003 68.9139 211.091 68.6358 211.091 68.5246C211.091 68.2544 210.972 68.0637 210.733 67.9525C210.495 67.8412 210.121 67.7856 209.613 67.7856H208.588L208.54 67.6903L208.826 66.7129C208.826 66.7129 208.985 66.7288 209.303 66.7606C209.637 66.7924 210.042 66.8242 210.519 66.8559C211.011 66.8877 211.496 66.9036 211.973 66.9036C212.322 66.9036 212.68 66.8957 213.045 66.8798C213.411 66.8639 213.721 66.848 213.975 66.8321C214.245 66.8162 214.38 66.8083 214.38 66.8083L214.094 67.881C213.649 67.8969 213.324 67.9763 213.117 68.1193C212.91 68.2624 212.696 68.5643 212.473 69.0252L206.037 81.9453L204.678 82.4698ZM219.515 72.8631C219.515 73.5305 219.324 74.1344 218.943 74.6748C218.561 75.1992 217.957 75.6918 217.131 76.1527C216.304 76.6136 215.208 77.0744 213.841 77.5353C213.778 78.5524 213.897 79.3708 214.199 79.9906C214.517 80.6104 214.954 80.9203 215.51 80.9203C215.987 80.9203 216.463 80.7375 216.94 80.372C217.417 79.9906 217.814 79.49 218.132 78.8702L218.466 78.8941L218.823 79.4662C218.521 80.0224 218.156 80.523 217.727 80.968C217.298 81.3971 216.845 81.7387 216.368 81.993C215.907 82.2314 215.446 82.3506 214.985 82.3506C214.127 82.3506 213.452 82.0009 212.959 81.3017C212.467 80.5866 212.22 79.6251 212.22 78.4173C212.22 77.4956 212.371 76.5977 212.673 75.7236C212.991 74.8337 213.404 74.0391 213.913 73.3398C214.437 72.6247 215.017 72.0605 215.653 71.6474C216.304 71.2183 216.964 71.0037 217.631 71.0037C218.235 71.0037 218.696 71.1626 219.014 71.4805C219.348 71.7983 219.515 72.2592 219.515 72.8631ZM216.869 72.3863C216.455 72.3863 216.042 72.577 215.629 72.9584C215.232 73.324 214.882 73.8245 214.58 74.4602C214.278 75.08 214.064 75.7713 213.937 76.5341C215.319 76.105 216.312 75.6521 216.916 75.1754C217.52 74.6986 217.822 74.1344 217.822 73.4829C217.822 72.7518 217.504 72.3863 216.869 72.3863ZM221.335 81.2302C221.621 79.4185 221.899 77.6704 222.17 75.9858C222.44 74.2854 222.67 72.7598 222.861 71.409C223.067 70.0423 223.226 68.9298 223.338 68.0717C223.465 67.2135 223.528 66.7129 223.528 66.5699C223.528 65.9501 223.195 65.6402 222.527 65.6402H221.55L221.693 64.7344C222.027 64.7344 222.416 64.7264 222.861 64.7105C223.322 64.6946 223.791 64.6787 224.267 64.6628C224.744 64.6311 225.165 64.6072 225.531 64.5913L225.745 64.8774C225.539 65.7673 225.316 66.7447 225.078 67.8094C224.855 68.8742 224.633 69.9628 224.41 71.0752C224.204 72.1877 224.005 73.2763 223.814 74.341C223.624 75.3899 223.465 76.3593 223.338 77.2493L223.409 77.2969C223.949 76.1527 224.442 75.1833 224.887 74.3887C225.332 73.5941 225.769 72.9267 226.198 72.3863C226.643 71.846 227.096 71.3851 227.557 71.0037C228.272 71.0037 228.852 71.3534 229.297 72.0526C229.758 72.7359 229.988 73.6338 229.988 74.7463C229.988 75.7157 229.837 76.6533 229.535 77.5592C229.249 78.4491 228.852 79.2516 228.344 79.9668C227.835 80.666 227.263 81.2222 226.627 81.6354C225.992 82.0486 225.324 82.2552 224.625 82.2552C224.307 82.2552 223.965 82.2314 223.6 82.1837C223.234 82.136 222.877 82.0725 222.527 81.993C222.178 81.8976 221.86 81.7944 221.574 81.6831L221.335 81.2302ZM227.247 72.9823C227.056 72.9823 226.81 73.1571 226.508 73.5067C226.222 73.8404 225.888 74.3331 225.507 74.9847C225.125 75.6203 224.712 76.399 224.267 77.3208C223.822 78.2425 223.354 79.2755 222.861 80.4197C223.258 80.5627 223.727 80.6899 224.267 80.8011C224.808 80.9123 225.229 80.968 225.531 80.968C226.007 80.968 226.46 80.7296 226.889 80.2528C227.319 79.7602 227.668 79.1245 227.938 78.3458C228.209 77.5671 228.344 76.7487 228.344 75.8905C228.344 75.382 228.288 74.9052 228.177 74.4602C228.081 74.0153 227.946 73.6577 227.771 73.3875C227.613 73.1174 227.438 72.9823 227.247 72.9823ZM232.137 78.7749C232.137 79.5854 232.335 80.2052 232.733 80.6342C233.13 81.0474 233.694 81.254 234.425 81.254C234.886 81.254 235.275 81.1031 235.593 80.8011C235.927 80.4992 236.094 80.1416 236.094 79.7284C236.094 79.3152 235.943 78.9417 235.641 78.608C235.355 78.2584 235.005 77.9088 234.592 77.5592C234.242 77.2572 233.893 76.9473 233.543 76.6295C233.21 76.2957 232.923 75.9461 232.685 75.5806C232.463 75.1992 232.351 74.786 232.351 74.341C232.351 73.7371 232.518 73.1889 232.852 72.6962C233.202 72.1877 233.662 71.7824 234.235 71.4805C234.807 71.1626 235.418 71.0037 236.07 71.0037C236.61 71.0037 237.095 71.0911 237.524 71.2659C237.969 71.4249 238.303 71.6553 238.525 71.9572C238.43 72.2433 238.295 72.5691 238.12 72.9346C237.961 73.3001 237.826 73.5941 237.715 73.8166H237.381C237.206 73.2922 236.936 72.8869 236.571 72.6009C236.205 72.2989 235.784 72.1479 235.307 72.1479C234.926 72.1479 234.6 72.2751 234.33 72.5294C234.076 72.7677 233.948 73.0697 233.948 73.4352C233.948 73.6895 234.012 73.9358 234.139 74.1742C234.282 74.4125 234.457 74.643 234.664 74.8655C234.934 75.1515 235.236 75.4376 235.569 75.7236C235.919 76.0097 236.253 76.3116 236.571 76.6295C236.888 76.9314 237.151 77.2652 237.357 77.6307C237.564 77.9803 237.667 78.3696 237.667 78.7987C237.667 79.4026 237.476 79.9827 237.095 80.5389C236.73 81.0792 236.245 81.5162 235.641 81.85C235.053 82.1837 234.417 82.3506 233.734 82.3506C233.003 82.3506 232.383 82.2314 231.875 81.993C231.382 81.7546 231.072 81.4288 230.945 81.0156C231.008 80.7773 231.088 80.5151 231.183 80.229C231.295 79.927 231.406 79.6489 231.517 79.3947C231.628 79.1245 231.724 78.9179 231.803 78.7749H232.137ZM242.026 80.6342C242.154 80.6342 242.328 80.5468 242.551 80.372C242.773 80.1972 243.226 79.8158 243.91 79.2278L244.196 79.2516L244.506 79.8238C243.949 80.3959 243.449 80.8726 243.004 81.254C242.575 81.6195 242.209 81.8897 241.907 82.0645C241.605 82.2552 241.359 82.3506 241.168 82.3506C240.691 82.3506 240.453 82.0725 240.453 81.5162C240.691 80.1336 240.898 78.8543 241.073 77.6783C241.264 76.5023 241.407 75.525 241.502 74.7463C241.613 73.9676 241.669 73.4988 241.669 73.3398C241.669 72.9743 241.589 72.7201 241.43 72.577C241.287 72.4181 241.033 72.3387 240.668 72.3387H239.69L239.857 71.4328C240.191 71.4328 240.588 71.4249 241.049 71.409C241.51 71.3931 241.979 71.3772 242.455 71.3613C242.932 71.3295 243.353 71.3057 243.719 71.2898L243.933 71.5758C243.679 72.4181 243.417 73.3716 243.147 74.4364C242.892 75.4853 242.662 76.5421 242.455 77.6068C242.249 78.6716 242.082 79.6489 241.955 80.5389L242.026 80.6342ZM242.908 68.2862C242.559 68.2862 242.304 68.175 242.146 67.9525C241.987 67.73 241.907 67.4837 241.907 67.2135C241.907 66.8003 242.058 66.4427 242.36 66.1408C242.662 65.823 243.028 65.664 243.457 65.664C243.806 65.664 244.061 65.7753 244.219 65.9978C244.394 66.2203 244.482 66.4666 244.482 66.7367C244.482 67.1499 244.323 67.5154 244.005 67.8333C243.703 68.1352 243.337 68.2862 242.908 68.2862ZM251.22 79.0133L251.506 79.5854C251.061 80.078 250.608 80.5389 250.147 80.968C249.686 81.3812 249.257 81.7149 248.86 81.9692C248.479 82.2234 248.161 82.3506 247.907 82.3506C247.43 82.3506 247.064 82.2075 246.81 81.9215C246.556 81.6354 246.46 81.2461 246.524 80.7534L247.835 72.577L247.716 72.4817L246.071 72.4102L245.999 72.291L246.095 71.5997L248.002 71.2898C248.065 70.8289 248.121 70.3839 248.169 69.9549C248.232 69.5099 248.28 69.1444 248.312 68.8583C248.359 68.5723 248.383 68.4292 248.383 68.4292L250.529 67.5949L250.672 67.881C250.672 67.881 250.624 68.0399 250.529 68.3577C250.433 68.6756 250.306 69.1046 250.147 69.645C250.004 70.1694 249.861 70.7415 249.718 71.3613L252.626 71.3375L252.722 71.409L252.531 72.3625L249.718 72.3387L249.456 72.4817L248.002 79.7999C247.922 80.3561 248.105 80.6342 248.55 80.6342C248.773 80.6342 249.059 80.5151 249.408 80.2767C249.774 80.0224 250.274 79.5933 250.91 78.9894L251.22 79.0133ZM259.811 72.8631C259.811 73.5305 259.62 74.1344 259.239 74.6748C258.857 75.1992 258.254 75.6918 257.427 76.1527C256.601 76.6136 255.504 77.0744 254.138 77.5353C254.074 78.5524 254.193 79.3708 254.495 79.9906C254.813 80.6104 255.25 80.9203 255.806 80.9203C256.283 80.9203 256.76 80.7375 257.236 80.372C257.713 79.9906 258.111 79.49 258.428 78.8702L258.762 78.8941L259.12 79.4662C258.818 80.0224 258.452 80.523 258.023 80.968C257.594 81.3971 257.141 81.7387 256.664 81.993C256.203 82.2314 255.743 82.3506 255.282 82.3506C254.424 82.3506 253.748 82.0009 253.256 81.3017C252.763 80.5866 252.517 79.6251 252.517 78.4173C252.517 77.4956 252.668 76.5977 252.969 75.7236C253.287 74.8337 253.7 74.0391 254.209 73.3398C254.733 72.6247 255.314 72.0605 255.949 71.6474C256.601 71.2183 257.26 71.0037 257.928 71.0037C258.532 71.0037 258.993 71.1626 259.31 71.4805C259.644 71.7983 259.811 72.2592 259.811 72.8631ZM257.165 72.3863C256.752 72.3863 256.339 72.577 255.925 72.9584C255.528 73.324 255.178 73.8245 254.876 74.4602C254.575 75.08 254.36 75.7713 254.233 76.5341C255.615 76.105 256.609 75.6521 257.213 75.1754C257.817 74.6986 258.118 74.1344 258.118 73.4829C258.118 72.7518 257.801 72.3863 257.165 72.3863Z" fill="#FFF7E8"/>
</svg>
