<svg width="298" height="93" viewBox="0 0 298 93" fill="none" xmlns="http://www.w3.org/2000/svg">
<path d="M22.2366 33.6511V30.0704H8.37007V19.3969H24.3348V15.7934H4.15083V49H24.54V45.4193H8.37007V33.6511H22.2366ZM42.031 49H45.7029L56.1712 15.7934H51.6782L44.3345 40.5387L43.8327 42.2036L43.3538 40.5843L36.0556 15.7934H31.5399L42.031 49ZM82.0778 33.6511V30.0704H68.2113V19.3969H84.176V15.7934H63.9921V49H84.3813V45.4193H68.2113V33.6511H82.0778ZM104.723 35.4528L111.246 49H115.693L115.716 48.7263L108.669 34.5405C109.581 34.1452 110.417 33.6663 111.177 33.1037C111.938 32.5411 112.591 31.8949 113.139 31.1651C113.686 30.4353 114.112 29.6219 114.416 28.7248C114.735 27.8277 114.895 26.8395 114.895 25.7599C114.895 24.0874 114.598 22.6354 114.005 21.4038C113.428 20.1571 112.629 19.1232 111.611 18.3021C110.577 17.4811 109.376 16.8653 108.007 16.4548C106.639 16.0443 105.179 15.8238 103.628 15.7934H93.8899V49H98.0863V35.4528H104.723ZM98.0863 31.9862V19.26H103.628C104.647 19.2752 105.582 19.4197 106.434 19.6933C107.3 19.967 108.045 20.3699 108.669 20.9021C109.292 21.4495 109.779 22.1261 110.128 22.9319C110.478 23.7225 110.653 24.65 110.653 25.7143C110.653 26.7178 110.47 27.6073 110.105 28.3827C109.741 29.1429 109.246 29.7891 108.623 30.3213C107.984 30.8534 107.247 31.264 106.411 31.5528C105.575 31.8265 104.685 31.971 103.742 31.9862H98.0863ZM133.435 32.4651L125.886 15.7934H121.074L131.405 36.6159L131.474 49H135.396L135.465 36.6159L145.796 15.7934H141.007L133.435 32.4651ZM158.178 35.6809H164.724C166.214 35.6657 167.62 35.4376 168.943 34.9967C170.281 34.5557 171.452 33.9171 172.455 33.0809C173.459 32.2447 174.25 31.2183 174.827 30.002C175.42 28.7704 175.717 27.3564 175.717 25.7599C175.717 24.1635 175.42 22.7494 174.827 21.5179C174.25 20.2863 173.459 19.2524 172.455 18.4162C171.452 17.5799 170.281 16.9413 168.943 16.5004C167.62 16.0595 166.214 15.8238 164.724 15.7934H153.959V49H158.178V35.6809ZM158.178 32.2142V19.26H164.724C165.697 19.2752 166.594 19.4349 167.415 19.739C168.251 20.043 168.974 20.4764 169.582 21.0389C170.175 21.6015 170.638 22.2857 170.973 23.0915C171.323 23.8974 171.498 24.8021 171.498 25.8055C171.498 26.809 171.323 27.7061 170.973 28.4967C170.638 29.2722 170.167 29.9336 169.559 30.4809C168.951 31.0283 168.236 31.454 167.415 31.7581C166.594 32.047 165.697 32.199 164.724 32.2142H158.178ZM200.871 40.6071C200.871 41.5194 200.673 42.31 200.278 42.979C199.883 43.6328 199.373 44.1726 198.75 44.5983C198.126 45.0392 197.412 45.3661 196.606 45.579C195.815 45.7766 195.009 45.8755 194.188 45.8755C193.155 45.8755 192.197 45.7386 191.315 45.465C190.448 45.1761 189.68 44.7503 189.011 44.1878C188.342 43.6404 187.795 42.9714 187.369 42.1808C186.943 41.3749 186.662 40.4551 186.525 39.4212H182.215C182.261 40.8504 182.572 42.1504 183.15 43.3211C183.743 44.4767 184.541 45.4878 185.545 46.3544C186.67 47.3579 187.993 48.1257 189.513 48.6579C191.049 49.1901 192.607 49.4561 194.188 49.4561C195.511 49.4561 196.834 49.2737 198.157 48.9088C199.48 48.5287 200.666 47.9661 201.715 47.2211C202.764 46.4913 203.615 45.5714 204.269 44.4615C204.938 43.3515 205.273 42.0515 205.273 40.5615C205.273 39.0867 204.961 37.7867 204.337 36.6616C203.729 35.5364 202.923 34.5861 201.92 33.8107C200.901 32.9745 199.776 32.2903 198.545 31.7581C197.313 31.2107 196.081 30.747 194.85 30.3669C194.105 30.1388 193.307 29.8727 192.455 29.5687C191.619 29.2646 190.843 28.8845 190.129 28.4283C189.399 27.9722 188.798 27.4172 188.327 26.7634C187.856 26.0944 187.612 25.281 187.597 24.3231C187.597 23.4412 187.772 22.6658 188.122 21.9968C188.487 21.3278 188.973 20.7653 189.581 20.3091C190.174 19.853 190.851 19.5109 191.611 19.2828C192.387 19.0548 193.177 18.9407 193.983 18.9407C194.987 18.9407 195.884 19.1004 196.674 19.4197C197.48 19.7238 198.172 20.1571 198.75 20.7196C199.328 21.2822 199.791 21.9588 200.141 22.7494C200.491 23.5249 200.726 24.3915 200.848 25.3494H205.181C205.151 23.829 204.824 22.453 204.201 21.2214C203.577 19.9898 202.749 18.9407 201.715 18.0741C200.681 17.2074 199.495 16.5384 198.157 16.0671C196.819 15.5805 195.428 15.3373 193.983 15.3373C192.676 15.3373 191.376 15.5425 190.083 15.953C188.791 16.3484 187.635 16.9337 186.617 17.7092C185.598 18.4846 184.769 19.4349 184.131 20.56C183.507 21.6851 183.196 22.9623 183.196 24.3915C183.196 25.8208 183.507 27.0675 184.131 28.1318C184.769 29.1809 185.59 30.0932 186.594 30.8686C187.582 31.6289 188.677 32.2827 189.878 32.83C191.094 33.3622 192.288 33.8183 193.459 34.1984C194.264 34.4569 195.101 34.7458 195.967 35.0651C196.849 35.3844 197.655 35.7797 198.385 36.251C199.115 36.7376 199.708 37.3306 200.164 38.03C200.635 38.7294 200.871 39.5884 200.871 40.6071ZM229.263 40.4019L231.886 49H236.083L225.546 15.7934H222.011L211.292 49H215.511L218.179 40.4019H229.263ZM219.32 36.73L223.767 22.3161L228.146 36.73H219.32ZM248.1 45.4193V15.7934H243.881V49H264.338V45.4193H248.1ZM277.884 15.7934H272.661V49H276.766V35.7493L276.424 22.3617L282.057 39.7633H284.475L290.61 21.8828L290.268 35.7493V49H294.373V15.7934H289.127L283.289 32.3967L277.884 15.7934Z" fill="#FF3E41"/>
<path d="M46.4888 81.3968C46.6168 82.0046 46.8167 82.4285 47.0886 82.6684C47.3766 82.8923 47.8484 83.0443 48.5042 83.1243L48.5522 83.1962L48.2883 84.132C48.2883 84.132 48.1363 84.124 47.8324 84.108C47.5445 84.092 47.2086 84.076 46.8247 84.06C46.4408 84.06 46.1209 84.06 45.865 84.06C45.2892 84.06 44.7373 84.076 44.2095 84.108C43.6816 84.156 43.2498 84.196 42.9139 84.2279C42.5939 84.2759 42.434 84.2999 42.434 84.2999L42.386 84.132L42.5779 83.2682C43.4737 83.2042 44.0655 83.0923 44.3534 82.9323C44.6413 82.7724 44.7853 82.4845 44.7853 82.0686C44.7853 81.9406 44.7773 81.7967 44.7613 81.6367C44.7453 81.4767 44.7213 81.3168 44.6893 81.1568L44.2575 78.4456C44.0655 78.4296 43.8176 78.4216 43.5137 78.4216C43.2258 78.4216 42.9298 78.4216 42.6259 78.4216C42.338 78.4216 42.0821 78.4216 41.8582 78.4216C41.5542 78.4216 41.2423 78.4376 40.9224 78.4696C40.6025 78.4856 40.2986 78.5096 40.0107 78.5416C39.7228 78.5576 39.4828 78.5816 39.2909 78.6136L38.1152 81.2048C37.8913 81.6687 37.7793 82.0366 37.7793 82.3085C37.7793 82.8843 38.2032 83.1723 39.051 83.1723H40.3946V83.2442L40.1547 84.2279C40.1547 84.2279 39.9947 84.212 39.6748 84.18C39.3709 84.148 38.971 84.116 38.4751 84.084C37.9953 84.068 37.4994 84.06 36.9876 84.06C36.6357 84.06 36.2598 84.06 35.8599 84.06C35.476 84.076 35.1481 84.092 34.8762 84.108C34.6043 84.124 34.4683 84.132 34.4683 84.132L34.7802 83.0523C35.2281 83.0043 35.596 82.8523 35.8839 82.5964C36.1878 82.3405 36.5077 81.8686 36.8436 81.1808L42.7939 68.9204L44.1375 68.5125H44.3294C44.3294 68.5125 44.3534 68.7045 44.4014 69.0883C44.4654 69.4562 44.5454 69.9681 44.6413 70.6239C44.7373 71.2797 44.8493 72.0315 44.9773 72.8792C45.1212 73.727 45.2732 74.6307 45.4331 75.5905C45.5931 76.5502 45.761 77.5259 45.937 78.5176C46.1289 79.5093 46.3129 80.469 46.4888 81.3968ZM39.8427 77.5579H41.8821C42.2021 77.5579 42.5779 77.5419 43.0098 77.5099C43.4577 77.4779 43.8096 77.4459 44.0655 77.4139L43.0098 71.0078H42.8419L39.8427 77.5579ZM56.0652 84.3479C55.5694 84.3479 55.3214 84.116 55.3214 83.6521C55.3214 83.3642 55.3774 82.9723 55.4894 82.4765C55.6174 81.9806 55.7693 81.4448 55.9453 80.8689C56.1372 80.2771 56.3211 79.6853 56.4971 79.0934C56.689 78.4856 56.841 77.9258 56.953 77.4139C57.0809 76.9021 57.1449 76.4782 57.1449 76.1423C57.1449 75.8544 57.0649 75.6224 56.905 75.4465C56.761 75.2546 56.5691 75.1586 56.3291 75.1586C55.9772 75.1586 55.5454 75.4625 55.0335 76.0703C54.5217 76.6781 53.9698 77.5179 53.378 78.5896C52.7862 79.6613 52.2023 80.9089 51.6265 82.3325L51.7225 79.0215L52.1784 79.2854C53.0101 77.6699 53.8419 76.3182 54.6736 75.2306C55.5214 74.1269 56.3132 73.3591 57.0489 72.9272C57.5608 72.9272 57.9927 73.1512 58.3446 73.599C58.6965 74.0309 58.8724 74.5747 58.8724 75.2306C58.8724 75.6464 58.7844 76.1663 58.6085 76.7901C58.4485 77.3979 58.2486 78.0537 58.0087 78.7575C57.7847 79.4453 57.5608 80.1171 57.3369 80.773C57.1289 81.4288 56.969 82.0126 56.857 82.5244L56.929 82.6204C57.009 82.6204 57.0969 82.5964 57.1929 82.5484C57.3049 82.4845 57.4808 82.3485 57.7207 82.1406C57.9767 81.9326 58.3446 81.6207 58.8244 81.2048L59.1123 81.2288L59.4242 81.8047C58.8644 82.3805 58.3606 82.8603 57.9127 83.2442C57.4808 83.6121 57.1129 83.884 56.809 84.06C56.5051 84.2519 56.2572 84.3479 56.0652 84.3479ZM50.1149 84.2759L49.947 84.06C50.107 83.1163 50.2669 82.1565 50.4269 81.1808C50.5868 80.2051 50.7308 79.2934 50.8587 78.4456C50.9867 77.5819 51.0827 76.8621 51.1466 76.2863C51.2266 75.7104 51.2666 75.3585 51.2666 75.2306C51.2666 74.8947 51.1866 74.6547 51.0267 74.5108C50.8667 74.3508 50.6028 74.2708 50.2349 74.2708H49.2512L49.4192 73.3591C49.819 73.3591 50.3789 73.3511 51.0987 73.3351C51.8345 73.3031 52.5702 73.2631 53.306 73.2151L53.522 73.5031C53.314 74.0949 53.1061 74.7587 52.8981 75.4945C52.7062 76.2303 52.5302 76.9581 52.3703 77.6778C52.2103 78.3976 52.0904 79.0375 52.0104 79.5973L51.9864 80.8929L51.6025 83.7241C51.6025 83.7721 51.4985 83.8441 51.2906 83.94C51.0987 84.02 50.8827 84.092 50.6428 84.156C50.4189 84.2359 50.2429 84.2759 50.1149 84.2759ZM68.5905 78.0138C68.5745 78.2217 68.5585 78.4296 68.5425 78.6376C68.5265 78.8455 68.5185 79.0375 68.5185 79.2134C68.5185 80.461 68.7985 81.4208 69.3583 82.0926C69.9341 82.7484 70.7739 83.0763 71.8776 83.0763C73.1572 83.0763 74.1729 82.7244 74.9247 82.0206C75.6925 81.3008 76.1563 80.2611 76.3163 78.9015C76.3643 78.5656 76.4203 78.0857 76.4842 77.4619C76.5482 76.8381 76.6202 76.1583 76.7002 75.4225C76.7802 74.6867 76.8521 73.9909 76.9161 73.3351C76.9961 72.6633 77.0521 72.1195 77.0841 71.7036C77.1321 71.2717 77.156 71.0558 77.156 71.0558C77.188 70.4959 77.164 70.144 77.0841 70.0001C77.0041 69.8401 76.7961 69.7601 76.4602 69.7601C76.3163 69.7601 76.1083 69.7681 75.8364 69.7841C75.5645 69.8001 75.4285 69.8081 75.4285 69.8081V69.7122L75.6925 68.7284C75.6925 68.7284 75.8444 68.7364 76.1483 68.7524C76.4682 68.7684 76.8281 68.7844 77.228 68.8004C77.6279 68.8004 77.9718 68.8004 78.2597 68.8004C78.5956 68.8004 78.9315 68.7844 79.2674 68.7524C79.6193 68.7045 79.9152 68.6645 80.1552 68.6325C80.3951 68.5845 80.5151 68.5605 80.5151 68.5605L80.2751 69.5922C79.5873 69.6722 79.1395 69.7921 78.9315 69.9521C78.7236 70.112 78.5876 70.4479 78.5236 70.9598L77.5159 79.1174C77.308 80.765 76.6522 82.0526 75.5485 82.9803C74.4448 83.892 72.9893 84.3479 71.1818 84.3479C69.7262 84.3479 68.6145 83.972 67.8467 83.2202C67.095 82.4525 66.7271 81.3728 66.7431 79.9812C66.7431 79.6773 66.7671 79.3574 66.815 79.0215L67.7988 71.0558C67.8627 70.5439 67.8467 70.2 67.7508 70.0241C67.6708 69.8481 67.4469 69.7601 67.079 69.7601C66.935 69.7601 66.7671 69.7681 66.5751 69.7841C66.3832 69.8001 66.2872 69.8081 66.2872 69.8081L66.2632 69.7122L66.5511 68.7284C66.5511 68.7284 66.7031 68.7364 67.007 68.7524C67.3109 68.7684 67.6628 68.7844 68.0627 68.8004C68.4626 68.8004 68.8065 68.8004 69.0944 68.8004C69.3343 68.8004 69.5902 68.7924 69.8622 68.7764C70.1501 68.7444 70.414 68.7124 70.6539 68.6805C70.9099 68.6485 71.1178 68.6245 71.2777 68.6085C71.4377 68.5765 71.5177 68.5605 71.5177 68.5605L71.3017 69.5922C70.7099 69.6722 70.302 69.8081 70.0781 70.0001C69.8702 70.176 69.7262 70.4959 69.6462 70.9598L68.5905 78.0138ZM87.2984 84.3479C86.8025 84.3479 86.5546 84.116 86.5546 83.6521C86.5546 83.3642 86.6106 82.9723 86.7225 82.4765C86.8505 81.9806 87.0024 81.4448 87.1784 80.8689C87.3703 80.2771 87.5543 79.6853 87.7302 79.0934C87.9222 78.4856 88.0741 77.9258 88.1861 77.4139C88.3141 76.9021 88.378 76.4782 88.378 76.1423C88.378 75.8544 88.2981 75.6224 88.1381 75.4465C87.9941 75.2546 87.8022 75.1586 87.5623 75.1586C87.2104 75.1586 86.7785 75.4625 86.2667 76.0703C85.7548 76.6781 85.203 77.5179 84.6111 78.5896C84.0193 79.6613 83.4355 80.9089 82.8596 82.3325L82.9556 79.0215L83.4115 79.2854C84.2432 77.6699 85.075 76.3182 85.9068 75.2306C86.7545 74.1269 87.5463 73.3591 88.2821 72.9272C88.7939 72.9272 89.2258 73.1512 89.5777 73.599C89.9296 74.0309 90.1055 74.5747 90.1055 75.2306C90.1055 75.6464 90.0176 76.1663 89.8416 76.7901C89.6817 77.3979 89.4817 78.0537 89.2418 78.7575C89.0179 79.4453 88.7939 80.1171 88.57 80.773C88.362 81.4288 88.2021 82.0126 88.0901 82.5244L88.1621 82.6204C88.2421 82.6204 88.3301 82.5964 88.426 82.5484C88.538 82.4845 88.7139 82.3485 88.9539 82.1406C89.2098 81.9326 89.5777 81.6207 90.0576 81.2048L90.3455 81.2288L90.6574 81.8047C90.0975 82.3805 89.5937 82.8603 89.1458 83.2442C88.7139 83.6121 88.346 83.884 88.0421 84.06C87.7382 84.2519 87.4903 84.3479 87.2984 84.3479ZM81.3481 84.2759L81.1801 84.06C81.3401 83.1163 81.5 82.1565 81.66 81.1808C81.8199 80.2051 81.9639 79.2934 82.0919 78.4456C82.2198 77.5819 82.3158 76.8621 82.3798 76.2863C82.4598 75.7104 82.4997 75.3585 82.4997 75.2306C82.4997 74.8947 82.4198 74.6547 82.2598 74.5108C82.0999 74.3508 81.8359 74.2708 81.468 74.2708H80.4843L80.6523 73.3591C81.0522 73.3591 81.612 73.3511 82.3318 73.3351C83.0676 73.3031 83.8034 73.2631 84.5392 73.2151L84.7551 73.5031C84.5471 74.0949 84.3392 74.7587 84.1313 75.4945C83.9393 76.2303 83.7634 76.9581 83.6034 77.6778C83.4435 78.3976 83.3235 79.0375 83.2435 79.5973L83.2195 80.8929L82.8356 83.7241C82.8356 83.7721 82.7317 83.8441 82.5237 83.94C82.3318 84.02 82.1159 84.092 81.8759 84.156C81.652 84.2359 81.476 84.2759 81.3481 84.2759ZM95.0024 84.3479C94.2186 84.3479 93.5708 83.996 93.0589 83.2922C92.5631 82.5724 92.3151 81.6127 92.3151 80.4131C92.3151 79.4213 92.4591 78.4776 92.747 77.5819C93.0349 76.6861 93.4348 75.8944 93.9467 75.2066C94.4585 74.5028 95.0424 73.9509 95.6982 73.551C96.354 73.1352 97.0418 72.9272 97.7616 72.9272C98.6093 72.9272 99.2731 73.2391 99.753 73.863C100.249 74.4868 100.497 75.3665 100.497 76.5022C100.497 77.5579 100.353 78.5576 100.065 79.5013C99.777 80.445 99.3771 81.2848 98.8652 82.0206C98.3694 82.7404 97.7856 83.3082 97.1138 83.7241C96.4579 84.14 95.7541 84.3479 95.0024 84.3479ZM95.9621 83.0283C96.4899 83.0283 96.9618 82.8044 97.3777 82.3565C97.7936 81.9086 98.1135 81.2928 98.3374 80.509C98.5773 79.7093 98.6973 78.8135 98.6973 77.8218C98.6973 76.7501 98.5213 75.9104 98.1694 75.3025C97.8335 74.6787 97.3617 74.3668 96.7539 74.3668C96.242 74.3668 95.7781 74.5827 95.3623 75.0146C94.9464 75.4305 94.6185 76.0063 94.3785 76.7421C94.1546 77.4619 94.0426 78.2857 94.0426 79.2134C94.0426 80.3331 94.2186 81.2528 94.5705 81.9726C94.9384 82.6764 95.4023 83.0283 95.9621 83.0283ZM102.062 74.2228L102.158 73.5271L104.054 73.2391L104.27 72.0395C104.366 71.3037 104.566 70.6319 104.87 70.0241C105.189 69.4002 105.581 68.8644 106.045 68.4165C106.525 67.9527 107.061 67.6008 107.653 67.3608C108.261 67.1049 108.9 66.977 109.572 66.977C110.052 66.977 110.556 67.0329 111.084 67.1449C111.628 67.2569 112.091 67.4008 112.475 67.5768L112.571 67.8407L111.875 68.9924L111.42 69.0643C110.876 68.8404 110.356 68.6725 109.86 68.5605C109.364 68.4485 108.916 68.3925 108.516 68.3925C107.813 68.3925 107.253 68.6245 106.837 69.0883C106.437 69.5362 106.173 70.216 106.045 71.1277L105.685 73.3591L110.748 73.3351L110.844 73.4071L110.652 74.3668L105.805 74.3428L105.565 74.4868L104.318 85.8595C104.254 86.4993 104.118 87.0671 103.91 87.563C103.702 88.0588 103.438 88.4747 103.118 88.8106C102.798 89.1625 102.422 89.4264 101.99 89.6024C101.574 89.7783 101.111 89.8663 100.599 89.8663C100.103 89.8663 99.647 89.7543 99.2311 89.5304C98.8153 89.3225 98.5513 89.0665 98.4394 88.7626C98.4874 88.5707 98.5593 88.3468 98.6553 88.0908C98.7513 87.8349 98.8553 87.579 98.9672 87.3231C99.0792 87.0831 99.1752 86.8912 99.2551 86.7472H99.591C99.575 87.339 99.727 87.8189 100.047 88.1868C100.351 88.5547 100.759 88.7386 101.271 88.7386C101.686 88.7386 102.062 88.5547 102.398 88.1868C102.734 87.8349 102.934 87.387 102.998 86.8432C103.094 86.0594 103.15 85.3316 103.166 84.6598C103.198 83.988 103.238 83.3322 103.286 82.6924L103.958 74.5348L103.79 74.4148L102.134 74.3428L102.062 74.2228ZM116.766 82.6204C116.894 82.6204 117.07 82.5324 117.294 82.3565C117.518 82.1805 117.974 81.7967 118.662 81.2048L118.949 81.2288L119.261 81.8047C118.83 82.2365 118.422 82.6204 118.038 82.9563C117.67 83.2922 117.342 83.5721 117.054 83.7961C116.766 84.004 116.518 84.156 116.31 84.2519C116.166 84.3159 116.03 84.3479 115.902 84.3479C115.423 84.3479 115.183 84.068 115.183 83.5082C115.183 83.5082 115.207 83.3322 115.255 82.9803C115.319 82.6124 115.399 82.1406 115.494 81.5647C115.59 80.9889 115.686 80.3731 115.782 79.7173C115.894 79.0455 115.998 78.3976 116.094 77.7738C116.19 77.15 116.262 76.6142 116.31 76.1663C116.374 75.7184 116.406 75.4225 116.406 75.2785C116.406 74.9107 116.326 74.6547 116.166 74.5108C116.022 74.3508 115.766 74.2708 115.399 74.2708H111.968L111.728 74.4148L110.672 84.108C110.576 85.0037 110.448 85.8035 110.288 86.5073C110.128 87.2271 109.904 87.8349 109.616 88.3308C109.344 88.8266 108.976 89.2025 108.513 89.4584C108.049 89.7304 107.465 89.8663 106.761 89.8663C106.265 89.8663 105.809 89.7543 105.393 89.5304C104.978 89.3225 104.714 89.0665 104.602 88.7626C104.65 88.5707 104.722 88.3468 104.818 88.0908C104.914 87.8349 105.018 87.579 105.129 87.3231C105.241 87.0831 105.337 86.8912 105.417 86.7472H105.753C105.737 87.339 105.889 87.8189 106.209 88.1868C106.513 88.5547 106.921 88.7386 107.433 88.7386C107.849 88.7386 108.225 88.5547 108.56 88.1868C108.896 87.8349 109.096 87.387 109.16 86.8432C109.24 86.2354 109.296 85.6515 109.328 85.0917C109.36 84.5479 109.384 84.004 109.4 83.4602L110.12 74.5348L109.952 74.4148L108.297 74.3428L108.225 74.2228L108.321 73.5271L110.216 73.2391L110.36 71.9675C110.488 70.9118 110.736 70.0241 111.104 69.3043C111.488 68.5685 111.944 67.9767 112.471 67.5288C113.015 67.0809 113.591 66.761 114.199 66.5691C114.807 66.3611 115.399 66.2572 115.974 66.2572C116.454 66.2572 116.966 66.3131 117.51 66.4251C118.07 66.5371 118.526 66.681 118.878 66.857L118.973 67.1209L118.23 68.6325L117.774 68.7044C117.23 68.3526 116.718 68.0966 116.238 67.9367C115.758 67.7607 115.319 67.6727 114.919 67.6727C113.991 67.6727 113.327 67.9687 112.927 68.5605C112.527 69.1363 112.255 69.9921 112.111 71.1277L111.848 73.2871H114.295C114.631 73.2871 115.031 73.2871 115.494 73.2871C115.974 73.2871 116.438 73.2871 116.886 73.2871C117.35 73.2711 117.726 73.2631 118.014 73.2631C118.318 73.2471 118.47 73.2311 118.47 73.2151L118.686 73.5031C118.686 73.5031 118.614 73.759 118.47 74.2708C118.326 74.7827 118.142 75.4705 117.918 76.3342C117.71 77.198 117.494 78.1657 117.27 79.2374C117.046 80.3091 116.854 81.4048 116.694 82.5244L116.766 82.6204ZM125.415 74.3428C124.919 74.3428 124.44 74.5987 123.976 75.1106C123.512 75.6224 123.136 76.2863 122.848 77.102C122.56 77.9178 122.416 78.7735 122.416 79.6693C122.416 80.661 122.568 81.4528 122.872 82.0446C123.176 82.6364 123.576 82.9323 124.072 82.9323C124.551 82.9323 125.031 82.7404 125.511 82.3565C126.007 81.9566 126.399 81.4528 126.687 80.8449L127.023 80.8689L127.383 81.4448C127.079 82.0046 126.711 82.5084 126.279 82.9563C125.847 83.3882 125.391 83.7321 124.911 83.988C124.448 84.2279 123.984 84.3479 123.52 84.3479C122.656 84.3479 121.976 83.996 121.48 83.2922C120.985 82.5724 120.737 81.6047 120.737 80.3891C120.737 79.4453 120.889 78.5336 121.192 77.6539C121.496 76.7581 121.904 75.9583 122.416 75.2546C122.944 74.5348 123.528 73.9669 124.168 73.551C124.807 73.1352 125.471 72.9272 126.159 72.9272C126.575 72.9272 126.959 72.9752 127.311 73.0712C127.679 73.1512 127.974 73.2711 128.198 73.4311L128.318 73.695L127.503 75.3025L127.167 75.3745C126.671 74.6867 126.087 74.3428 125.415 74.3428ZM131.36 82.6204C131.487 82.6204 131.663 82.5324 131.887 82.3565C132.111 82.1805 132.567 81.7967 133.255 81.2048L133.543 81.2288L133.855 81.8047C133.295 82.3805 132.791 82.8603 132.343 83.2442C131.911 83.6121 131.543 83.884 131.24 84.06C130.936 84.2519 130.688 84.3479 130.496 84.3479C130.016 84.3479 129.776 84.068 129.776 83.5082C130.016 82.1166 130.224 80.8289 130.4 79.6453C130.592 78.4616 130.736 77.4779 130.832 76.6941C130.944 75.9104 131 75.4385 131 75.2785C131 74.9107 130.92 74.6547 130.76 74.5108C130.616 74.3508 130.36 74.2708 129.992 74.2708H129.008L129.176 73.3591C129.512 73.3591 129.912 73.3511 130.376 73.3351C130.84 73.3191 131.312 73.3031 131.791 73.2871C132.271 73.2551 132.695 73.2311 133.063 73.2151L133.279 73.5031C133.023 74.3508 132.759 75.3105 132.487 76.3822C132.231 77.4379 131.999 78.5016 131.791 79.5733C131.583 80.645 131.415 81.6287 131.288 82.5244L131.36 82.6204ZM132.247 70.192C131.895 70.192 131.639 70.0801 131.479 69.8561C131.32 69.6322 131.24 69.3843 131.24 69.1123C131.24 68.6965 131.391 68.3366 131.695 68.0326C131.999 67.7127 132.367 67.5528 132.799 67.5528C133.151 67.5528 133.407 67.6648 133.567 67.8887C133.743 68.1126 133.831 68.3605 133.831 68.6325C133.831 69.0484 133.671 69.4162 133.351 69.7362C133.047 70.0401 132.679 70.192 132.247 70.192ZM142.508 82.6204C142.588 82.6204 142.676 82.5964 142.772 82.5484C142.884 82.4845 143.06 82.3485 143.3 82.1406C143.556 81.9326 143.924 81.6207 144.404 81.2048L144.692 81.2288L145.004 81.8047C144.3 82.4765 143.724 82.9963 143.276 83.3642C142.844 83.7321 142.5 83.988 142.244 84.132C141.989 84.2759 141.757 84.3479 141.549 84.3479C141.325 84.3479 141.141 84.2839 140.997 84.156C140.853 84.044 140.781 83.892 140.781 83.7001C140.781 83.5242 140.869 82.9963 141.045 82.1166C141.237 81.2208 141.493 80.0692 141.813 78.6616L141.669 78.6136C140.885 80.0532 140.133 81.2368 139.413 82.1645C138.694 83.0763 137.95 83.8041 137.182 84.3479C136.59 84.3479 136.118 84.068 135.766 83.5082C135.43 82.9323 135.263 82.1406 135.263 81.1328C135.263 80.1411 135.414 79.1654 135.718 78.2057C136.038 77.23 136.462 76.3582 136.99 75.5905C137.518 74.8067 138.11 74.1829 138.765 73.719C139.421 73.2551 140.085 73.0232 140.757 73.0232L143.156 73.4071L143.372 72.8073L143.492 72.7833L144.236 73.1432L144.428 73.4311C144.172 74.2788 143.916 75.2466 143.66 76.3342C143.404 77.4059 143.164 78.4856 142.94 79.5733C142.732 80.645 142.564 81.6287 142.436 82.5244L142.508 82.6204ZM137.686 82.4045C137.894 82.4045 138.174 82.2125 138.526 81.8286C138.893 81.4288 139.293 80.8929 139.725 80.2211C140.173 79.5333 140.629 78.7575 141.093 77.8938C141.557 77.014 142.005 76.0863 142.436 75.1106C142.069 74.8867 141.661 74.7027 141.213 74.5588C140.765 74.3988 140.389 74.3188 140.085 74.3188C139.541 74.3188 139.029 74.5827 138.55 75.1106C138.07 75.6384 137.678 76.3342 137.374 77.198C137.086 78.0457 136.942 78.9655 136.942 79.9572C136.942 80.661 137.014 81.2448 137.158 81.7087C137.302 82.1725 137.478 82.4045 137.686 82.4045ZM148.457 82.6204C148.585 82.6204 148.761 82.5324 148.985 82.3565C149.209 82.1805 149.665 81.7967 150.353 81.2048L150.641 81.2288L150.952 81.8047C150.409 82.3485 149.913 82.8124 149.465 83.1962C149.033 83.5801 148.657 83.8681 148.337 84.06C148.033 84.2519 147.785 84.3479 147.593 84.3479C147.098 84.3479 146.85 84.116 146.85 83.6521C146.85 83.5881 146.89 83.2842 146.97 82.7404C147.05 82.1965 147.154 81.5007 147.282 80.653C147.425 79.7892 147.577 78.8455 147.737 77.8218C147.897 76.7981 148.057 75.7664 148.217 74.7267C148.377 73.687 148.521 72.7273 148.649 71.8475C148.793 70.9518 148.905 70.208 148.985 69.6162C149.065 69.0084 149.105 68.6325 149.105 68.4885C149.105 67.8487 148.769 67.5288 148.097 67.5288H147.114L147.258 66.6171C147.625 66.6171 148.025 66.6091 148.457 66.5931C148.905 66.5771 149.329 66.5611 149.729 66.5451C150.145 66.5291 150.481 66.5131 150.737 66.4971C150.992 66.4811 151.12 66.4731 151.12 66.4731L151.336 66.761C151.336 66.761 151.28 67.0009 151.168 67.4808C151.072 67.9607 150.936 68.6245 150.761 69.4722C150.585 70.304 150.385 71.2557 150.161 72.3274C149.953 73.3831 149.737 74.5028 149.513 75.6864C149.289 76.8701 149.081 78.0457 148.889 79.2134C148.697 80.3811 148.529 81.4847 148.385 82.5244L148.457 82.6204ZM160.116 81.4687C160.037 82.0286 160.052 82.4445 160.164 82.7164C160.276 82.9723 160.532 83.1003 160.932 83.1003C161.092 83.1003 161.3 83.0923 161.556 83.0763C161.828 83.0603 162.068 83.0523 162.276 83.0523C162.484 83.0363 162.588 83.0283 162.588 83.0283L162.612 83.1243L162.3 84.156C162.3 84.156 162.18 84.148 161.94 84.132C161.716 84.132 161.42 84.124 161.052 84.108C160.7 84.092 160.324 84.076 159.925 84.06C159.541 84.06 159.197 84.06 158.893 84.06C158.525 84.06 158.133 84.084 157.717 84.132C157.317 84.18 156.981 84.2279 156.709 84.2759C156.438 84.3239 156.302 84.3479 156.302 84.3479L156.542 83.3162C157.293 83.1723 157.805 82.9643 158.077 82.6924C158.349 82.4045 158.525 81.9246 158.605 81.2528L159.877 71.0558C159.941 70.5439 159.925 70.2 159.829 70.0241C159.749 69.8481 159.533 69.7601 159.181 69.7601C159.053 69.7601 158.885 69.7681 158.677 69.7841C158.485 69.8001 158.389 69.8081 158.389 69.8081L158.365 69.7362L158.629 68.7284C158.629 68.7284 158.725 68.7364 158.917 68.7524C159.109 68.7524 159.365 68.7604 159.685 68.7764C160.005 68.7764 160.348 68.7844 160.716 68.8004C161.084 68.8004 161.436 68.8004 161.772 68.8004C162.828 68.8004 163.747 68.7924 164.531 68.7764C165.331 68.7604 166.027 68.7284 166.619 68.6805C167.226 68.6325 167.778 68.5765 168.274 68.5125L168.322 68.6325C168.322 68.6325 168.266 68.8164 168.154 69.1843C168.042 69.5362 167.906 70.0161 167.746 70.6239C167.586 71.2317 167.434 71.9035 167.29 72.6393L166.259 72.7353C166.259 72.7353 166.275 72.6473 166.307 72.4714C166.339 72.2794 166.371 72.0555 166.403 71.7996C166.451 71.5276 166.475 71.2877 166.475 71.0798C166.475 70.7119 166.395 70.4479 166.235 70.288C166.075 70.128 165.779 70.0241 165.347 69.9761C164.915 69.9281 164.299 69.9041 163.5 69.9041C163.004 69.9041 162.636 69.9201 162.396 69.9521C162.172 69.9841 162.02 70.0641 161.94 70.192C161.86 70.32 161.796 70.5359 161.748 70.8398L160.956 76.0223L163.332 76.0463C163.571 76.0463 163.883 76.0223 164.267 75.9743C164.667 75.9264 165.019 75.8864 165.323 75.8544C165.627 75.8064 165.779 75.7824 165.779 75.7824L165.827 75.8784L165.371 77.246C165.371 77.246 165.203 77.238 164.867 77.222C164.547 77.206 164.163 77.198 163.715 77.198C163.284 77.182 162.884 77.174 162.516 77.174C162.164 77.174 161.828 77.198 161.508 77.246C161.188 77.278 160.924 77.31 160.716 77.3419L160.116 81.4687ZM174.444 82.6204C174.524 82.6204 174.612 82.5964 174.708 82.5484C174.82 82.4845 174.996 82.3485 175.236 82.1406C175.492 81.9326 175.86 81.6207 176.34 81.2048L176.628 81.2288L176.94 81.8047C176.236 82.4765 175.66 82.9963 175.212 83.3642C174.78 83.7321 174.436 83.988 174.181 84.132C173.925 84.2759 173.693 84.3479 173.485 84.3479C173.261 84.3479 173.077 84.2839 172.933 84.156C172.789 84.044 172.717 83.892 172.717 83.7001C172.717 83.5242 172.805 82.9963 172.981 82.1166C173.173 81.2208 173.429 80.0692 173.749 78.6616L173.605 78.6136C172.821 80.0532 172.069 81.2368 171.349 82.1645C170.63 83.0763 169.886 83.8041 169.118 84.3479C168.526 84.3479 168.054 84.068 167.702 83.5082C167.366 82.9323 167.199 82.1406 167.199 81.1328C167.199 80.1411 167.351 79.1654 167.654 78.2057C167.974 77.23 168.398 76.3582 168.926 75.5905C169.454 74.8067 170.046 74.1829 170.702 73.719C171.357 73.2551 172.021 73.0232 172.693 73.0232L175.092 73.4071L175.308 72.8073L175.428 72.7833L176.172 73.1432L176.364 73.4311C176.108 74.2788 175.852 75.2466 175.596 76.3342C175.34 77.4059 175.1 78.4856 174.876 79.5733C174.668 80.645 174.5 81.6287 174.372 82.5244L174.444 82.6204ZM169.622 82.4045C169.83 82.4045 170.11 82.2125 170.462 81.8286C170.829 81.4288 171.229 80.8929 171.661 80.2211C172.109 79.5333 172.565 78.7575 173.029 77.8938C173.493 77.014 173.941 76.0863 174.372 75.1106C174.005 74.8867 173.597 74.7027 173.149 74.5588C172.701 74.3988 172.325 74.3188 172.021 74.3188C171.477 74.3188 170.965 74.5827 170.486 75.1106C170.006 75.6384 169.614 76.3342 169.31 77.198C169.022 78.0457 168.878 78.9655 168.878 79.9572C168.878 80.661 168.95 81.2448 169.094 81.7087C169.238 82.1725 169.414 82.4045 169.622 82.4045ZM185.192 84.3479C184.696 84.3479 184.448 84.116 184.448 83.6521C184.448 83.3642 184.504 82.9723 184.616 82.4765C184.744 81.9806 184.896 81.4448 185.072 80.8689C185.264 80.2771 185.448 79.6853 185.624 79.0934C185.816 78.4856 185.968 77.9258 186.08 77.4139C186.208 76.9021 186.272 76.4782 186.272 76.1423C186.272 75.8544 186.192 75.6224 186.032 75.4465C185.888 75.2546 185.696 75.1586 185.456 75.1586C185.104 75.1586 184.672 75.4625 184.16 76.0703C183.648 76.6781 183.096 77.5179 182.505 78.5896C181.913 79.6613 181.329 80.9089 180.753 82.3325L180.849 79.0215L181.305 79.2854C182.137 77.6699 182.968 76.3182 183.8 75.2306C184.648 74.1269 185.44 73.3591 186.176 72.9272C186.687 72.9272 187.119 73.1512 187.471 73.599C187.823 74.0309 187.999 74.5747 187.999 75.2306C187.999 75.6464 187.911 76.1663 187.735 76.7901C187.575 77.3979 187.375 78.0537 187.135 78.7575C186.911 79.4453 186.687 80.1171 186.463 80.773C186.256 81.4288 186.096 82.0126 185.984 82.5244L186.056 82.6204C186.136 82.6204 186.224 82.5964 186.32 82.5484C186.431 82.4845 186.607 82.3485 186.847 82.1406C187.103 81.9326 187.471 81.6207 187.951 81.2048L188.239 81.2288L188.551 81.8047C187.991 82.3805 187.487 82.8603 187.039 83.2442C186.607 83.6121 186.24 83.884 185.936 84.06C185.632 84.2519 185.384 84.3479 185.192 84.3479ZM179.242 84.2759L179.074 84.06C179.234 83.1163 179.394 82.1565 179.553 81.1808C179.713 80.2051 179.857 79.2934 179.985 78.4456C180.113 77.5819 180.209 76.8621 180.273 76.2863C180.353 75.7104 180.393 75.3585 180.393 75.2306C180.393 74.8947 180.313 74.6547 180.153 74.5108C179.993 74.3508 179.729 74.2708 179.362 74.2708H178.378L178.546 73.3591C178.946 73.3591 179.505 73.3511 180.225 73.3351C180.961 73.3031 181.697 73.2631 182.433 73.2151L182.649 73.5031C182.441 74.0949 182.233 74.7587 182.025 75.4945C181.833 76.2303 181.657 76.9581 181.497 77.6778C181.337 78.3976 181.217 79.0375 181.137 79.5973L181.113 80.8929L180.729 83.7241C180.729 83.7721 180.625 83.8441 180.417 83.94C180.225 84.02 180.009 84.092 179.769 84.156C179.545 84.2359 179.37 84.2759 179.242 84.2759ZM206.283 84.4679L204.675 74.3428H204.531L199.972 83.94L198.557 84.4679C198.557 84.4679 198.525 84.2919 198.461 83.94C198.413 83.5881 198.341 83.0923 198.245 82.4525C198.149 81.8126 198.029 81.0689 197.885 80.2211C197.757 79.3734 197.605 78.4536 197.429 77.4619C197.269 76.4702 197.093 75.4385 196.901 74.3668C196.725 73.2951 196.541 72.2234 196.35 71.1517C196.27 70.6879 196.078 70.352 195.774 70.144C195.47 69.9201 195.03 69.8001 194.454 69.7841L194.406 69.6882L194.67 68.7284C194.67 68.7284 194.83 68.7364 195.15 68.7524C195.47 68.7684 195.83 68.7844 196.23 68.8004C196.645 68.8004 196.973 68.8004 197.213 68.8004C197.757 68.8004 198.285 68.7764 198.797 68.7284C199.309 68.6805 199.733 68.6325 200.068 68.5845C200.404 68.5365 200.572 68.5125 200.572 68.5125L200.62 68.6805L200.452 69.5682C199.525 69.6322 198.909 69.7362 198.605 69.8801C198.317 70.0241 198.173 70.28 198.173 70.6479C198.173 70.8718 198.205 71.3037 198.269 71.9435C198.349 72.5673 198.445 73.3031 198.557 74.1509C198.669 74.9826 198.789 75.8464 198.917 76.7421C199.061 77.6379 199.189 78.4696 199.301 79.2374C199.413 80.0052 199.501 80.629 199.565 81.1089C199.645 81.5887 199.685 81.8286 199.685 81.8286H199.829C200.196 81.0449 200.556 80.2691 200.908 79.5013C201.276 78.7335 201.644 77.9658 202.012 77.198C202.396 76.4302 202.772 75.6624 203.14 74.8947C203.507 74.1109 203.883 73.3271 204.267 72.5433C204.251 72.4154 204.227 72.2794 204.195 72.1355C204.163 71.9755 204.131 71.8155 204.099 71.6556C204.067 71.4956 204.035 71.3437 204.003 71.1997C203.891 70.7039 203.699 70.352 203.427 70.144C203.156 69.9201 202.74 69.8001 202.18 69.7841L202.156 69.6882L202.444 68.7284C202.444 68.7284 202.54 68.7364 202.732 68.7524C202.924 68.7524 203.156 68.7604 203.427 68.7764C203.715 68.7764 203.995 68.7844 204.267 68.8004C204.555 68.8004 204.795 68.8004 204.987 68.8004C205.451 68.8004 205.939 68.7764 206.451 68.7284C206.978 68.6805 207.426 68.6325 207.794 68.5845C208.162 68.5365 208.346 68.5125 208.346 68.5125L208.37 68.6805L208.178 69.5682C207.234 69.6322 206.619 69.7362 206.331 69.8801C206.043 70.0081 205.899 70.256 205.899 70.6239C205.899 70.8158 205.931 71.2237 205.995 71.8475C206.075 72.4554 206.171 73.1832 206.283 74.0309C206.411 74.8787 206.539 75.7584 206.667 76.6701C206.795 77.5659 206.914 78.4056 207.026 79.1894C207.154 79.9732 207.25 80.613 207.314 81.1089C207.394 81.5887 207.434 81.8286 207.434 81.8286H207.578C207.834 81.2688 208.138 80.621 208.49 79.8852C208.842 79.1494 209.21 78.3736 209.594 77.5579C209.994 76.7421 210.377 75.9424 210.745 75.1586C211.113 74.3588 211.449 73.623 211.753 72.9512C212.057 72.2794 212.297 71.7196 212.473 71.2717C212.649 70.8238 212.737 70.5439 212.737 70.4319C212.737 70.16 212.617 69.9681 212.377 69.8561C212.137 69.7441 211.761 69.6882 211.249 69.6882H210.218L210.17 69.5922L210.457 68.6085C210.457 68.6085 210.617 68.6245 210.937 68.6565C211.273 68.6885 211.681 68.7204 212.161 68.7524C212.657 68.7844 213.145 68.8004 213.625 68.8004C213.976 68.8004 214.336 68.7924 214.704 68.7764C215.072 68.7604 215.384 68.7444 215.64 68.7284C215.912 68.7124 216.048 68.7044 216.048 68.7044L215.76 69.7841C215.312 69.8001 214.984 69.8801 214.776 70.0241C214.568 70.168 214.352 70.4719 214.128 70.9358L207.65 83.94L206.283 84.4679ZM221.216 74.7987C221.216 75.4705 221.024 76.0783 220.64 76.6222C220.256 77.15 219.648 77.6459 218.816 78.1097C217.984 78.5736 216.881 79.0375 215.505 79.5013C215.441 80.525 215.561 81.3488 215.865 81.9726C216.185 82.5964 216.625 82.9083 217.185 82.9083C217.665 82.9083 218.144 82.7244 218.624 82.3565C219.104 81.9726 219.504 81.4687 219.824 80.8449L220.16 80.8689L220.52 81.4448C220.216 82.0046 219.848 82.5084 219.416 82.9563C218.984 83.3882 218.528 83.7321 218.048 83.988C217.585 84.2279 217.121 84.3479 216.657 84.3479C215.793 84.3479 215.113 83.996 214.617 83.2922C214.122 82.5724 213.874 81.6047 213.874 80.3891C213.874 79.4613 214.026 78.5576 214.33 77.6778C214.649 76.7821 215.065 75.9823 215.577 75.2785C216.105 74.5588 216.689 73.9909 217.329 73.575C217.984 73.1432 218.648 72.9272 219.32 72.9272C219.928 72.9272 220.392 73.0872 220.712 73.4071C221.048 73.727 221.216 74.1909 221.216 74.7987ZM218.552 74.3188C218.136 74.3188 217.721 74.5108 217.305 74.8947C216.905 75.2625 216.553 75.7664 216.249 76.4062C215.945 77.03 215.729 77.7258 215.601 78.4936C216.993 78.0617 217.992 77.6059 218.6 77.126C219.208 76.6461 219.512 76.0783 219.512 75.4225C219.512 74.6867 219.192 74.3188 218.552 74.3188ZM223.048 83.2202C223.336 81.3968 223.616 79.6373 223.888 77.9418C224.16 76.2303 224.392 74.6947 224.584 73.3351C224.791 71.9595 224.951 70.8398 225.063 69.9761C225.191 69.1123 225.255 68.6085 225.255 68.4645C225.255 67.8407 224.919 67.5288 224.248 67.5288H223.264L223.408 66.6171C223.744 66.6171 224.136 66.6091 224.584 66.5931C225.047 66.5771 225.519 66.5611 225.999 66.5451C226.479 66.5131 226.903 66.4891 227.271 66.4731L227.487 66.761C227.279 67.6568 227.055 68.6405 226.815 69.7122C226.591 70.7838 226.367 71.8795 226.143 72.9992C225.935 74.1189 225.735 75.2146 225.543 76.2863C225.351 77.3419 225.191 78.3177 225.063 79.2134L225.135 79.2614C225.679 78.1097 226.175 77.134 226.623 76.3342C227.071 75.5345 227.511 74.8627 227.943 74.3188C228.39 73.775 228.846 73.3111 229.31 72.9272C230.03 72.9272 230.614 73.2791 231.062 73.9829C231.526 74.6707 231.757 75.5745 231.757 76.6941C231.757 77.6699 231.605 78.6136 231.302 79.5253C231.014 80.4211 230.614 81.2288 230.102 81.9486C229.59 82.6524 229.014 83.2122 228.374 83.6281C227.735 84.044 227.063 84.2519 226.359 84.2519C226.039 84.2519 225.695 84.2279 225.327 84.18C224.959 84.132 224.6 84.068 224.248 83.988C223.896 83.892 223.576 83.7881 223.288 83.6761L223.048 83.2202ZM228.998 74.9186C228.806 74.9186 228.558 75.0946 228.254 75.4465C227.967 75.7824 227.631 76.2783 227.247 76.9341C226.863 77.5739 226.447 78.3577 225.999 79.2854C225.551 80.2131 225.079 81.2528 224.584 82.4045C224.983 82.5484 225.455 82.6764 225.999 82.7884C226.543 82.9003 226.967 82.9563 227.271 82.9563C227.751 82.9563 228.206 82.7164 228.638 82.2365C229.07 81.7407 229.422 81.1009 229.694 80.3171C229.966 79.5333 230.102 78.7095 230.102 77.8458C230.102 77.3339 230.046 76.8541 229.934 76.4062C229.838 75.9583 229.702 75.5985 229.526 75.3265C229.366 75.0546 229.19 74.9186 228.998 74.9186ZM233.92 80.749C233.92 81.5647 234.12 82.1885 234.52 82.6204C234.92 83.0363 235.487 83.2442 236.223 83.2442C236.687 83.2442 237.079 83.0923 237.399 82.7884C237.735 82.4845 237.903 82.1246 237.903 81.7087C237.903 81.2928 237.751 80.9169 237.447 80.581C237.159 80.2291 236.807 79.8772 236.391 79.5253C236.039 79.2214 235.687 78.9095 235.335 78.5896C235 78.2537 234.712 77.9018 234.472 77.5339C234.248 77.15 234.136 76.7341 234.136 76.2863C234.136 75.6784 234.304 75.1266 234.64 74.6307C234.992 74.1189 235.455 73.711 236.031 73.4071C236.607 73.0872 237.223 72.9272 237.879 72.9272C238.423 72.9272 238.91 73.0152 239.342 73.1911C239.79 73.3511 240.126 73.583 240.35 73.8869C240.254 74.1749 240.118 74.5028 239.942 74.8707C239.782 75.2386 239.646 75.5345 239.534 75.7584H239.198C239.022 75.2306 238.75 74.8227 238.383 74.5348C238.015 74.2308 237.591 74.0789 237.111 74.0789C236.727 74.0789 236.399 74.2069 236.127 74.4628C235.871 74.7027 235.743 75.0066 235.743 75.3745C235.743 75.6304 235.807 75.8784 235.935 76.1183C236.079 76.3582 236.255 76.5902 236.463 76.8141C236.735 77.102 237.039 77.3899 237.375 77.6778C237.727 77.9658 238.063 78.2697 238.383 78.5896C238.702 78.8935 238.966 79.2294 239.174 79.5973C239.382 79.9492 239.486 80.3411 239.486 80.773C239.486 81.3808 239.294 81.9646 238.91 82.5244C238.542 83.0683 238.055 83.5082 237.447 83.8441C236.855 84.18 236.215 84.3479 235.527 84.3479C234.792 84.3479 234.168 84.2279 233.656 83.988C233.16 83.7481 232.848 83.4202 232.72 83.0043C232.784 82.7644 232.864 82.5004 232.96 82.2125C233.072 81.9086 233.184 81.6287 233.296 81.3728C233.408 81.1009 233.504 80.8929 233.584 80.749H233.92ZM243.874 82.6204C244.002 82.6204 244.178 82.5324 244.402 82.3565C244.626 82.1805 245.081 81.7967 245.769 81.2048L246.057 81.2288L246.369 81.8047C245.809 82.3805 245.305 82.8603 244.857 83.2442C244.426 83.6121 244.058 83.884 243.754 84.06C243.45 84.2519 243.202 84.3479 243.01 84.3479C242.53 84.3479 242.29 84.068 242.29 83.5082C242.53 82.1166 242.738 80.8289 242.914 79.6453C243.106 78.4616 243.25 77.4779 243.346 76.6941C243.458 75.9104 243.514 75.4385 243.514 75.2785C243.514 74.9107 243.434 74.6547 243.274 74.5108C243.13 74.3508 242.874 74.2708 242.506 74.2708H241.522L241.69 73.3591C242.026 73.3591 242.426 73.3511 242.89 73.3351C243.354 73.3191 243.826 73.3031 244.306 73.2871C244.785 73.2551 245.209 73.2311 245.577 73.2151L245.793 73.5031C245.537 74.3508 245.273 75.3105 245.001 76.3822C244.746 77.4379 244.514 78.5016 244.306 79.5733C244.098 80.645 243.93 81.6287 243.802 82.5244L243.874 82.6204ZM244.761 70.192C244.41 70.192 244.154 70.0801 243.994 69.8561C243.834 69.6322 243.754 69.3843 243.754 69.1123C243.754 68.6965 243.906 68.3366 244.21 68.0326C244.514 67.7127 244.881 67.5528 245.313 67.5528C245.665 67.5528 245.921 67.6648 246.081 67.8887C246.257 68.1126 246.345 68.3605 246.345 68.6325C246.345 69.0484 246.185 69.4162 245.865 69.7362C245.561 70.0401 245.193 70.192 244.761 70.192ZM253.127 80.9889L253.415 81.5647C252.967 82.0606 252.511 82.5244 252.048 82.9563C251.584 83.3722 251.152 83.7081 250.752 83.964C250.368 84.22 250.048 84.3479 249.792 84.3479C249.312 84.3479 248.944 84.204 248.688 83.916C248.433 83.6281 248.337 83.2362 248.401 82.7404L249.72 74.5108L249.6 74.4148L247.945 74.3428L247.873 74.2228L247.969 73.5271L249.888 73.2151C249.952 72.7513 250.008 72.3034 250.056 71.8715C250.12 71.4237 250.168 71.0558 250.2 70.7679C250.248 70.4799 250.272 70.336 250.272 70.336L252.431 69.4962L252.575 69.7841C252.575 69.7841 252.527 69.9441 252.431 70.264C252.335 70.5839 252.207 71.0158 252.048 71.5596C251.904 72.0875 251.76 72.6633 251.616 73.2871L254.543 73.2631L254.639 73.3351L254.447 74.2948L251.616 74.2708L251.352 74.4148L249.888 81.7807C249.808 82.3405 249.992 82.6204 250.44 82.6204C250.664 82.6204 250.952 82.5004 251.304 82.2605C251.672 82.0046 252.175 81.5727 252.815 80.9649L253.127 80.9889ZM261.774 74.7987C261.774 75.4705 261.582 76.0783 261.198 76.6222C260.814 77.15 260.207 77.6459 259.375 78.1097C258.543 78.5736 257.439 79.0375 256.064 79.5013C256 80.525 256.12 81.3488 256.424 81.9726C256.744 82.5964 257.183 82.9083 257.743 82.9083C258.223 82.9083 258.703 82.7244 259.183 82.3565C259.663 81.9726 260.063 81.4687 260.382 80.8449L260.718 80.8689L261.078 81.4448C260.774 82.0046 260.406 82.5084 259.975 82.9563C259.543 83.3882 259.087 83.7321 258.607 83.988C258.143 84.2279 257.679 84.3479 257.215 84.3479C256.352 84.3479 255.672 83.996 255.176 83.2922C254.68 82.5724 254.432 81.6047 254.432 80.3891C254.432 79.4613 254.584 78.5576 254.888 77.6778C255.208 76.7821 255.624 75.9823 256.136 75.2785C256.664 74.5588 257.247 73.9909 257.887 73.575C258.543 73.1432 259.207 72.9272 259.879 72.9272C260.486 72.9272 260.95 73.0872 261.27 73.4071C261.606 73.727 261.774 74.1909 261.774 74.7987ZM259.111 74.3188C258.695 74.3188 258.279 74.5108 257.863 74.8947C257.463 75.2625 257.111 75.7664 256.807 76.4062C256.504 77.03 256.288 77.7258 256.16 78.4936C257.551 78.0617 258.551 77.6059 259.159 77.126C259.767 76.6461 260.071 76.0783 260.071 75.4225C260.071 74.6867 259.751 74.3188 259.111 74.3188Z" fill="#564138"/>
</svg>
